<svg id="图层_1" data-name="图层 1" xmlns="http://www.w3.org/2000/svg" xmlns:xlink="http://www.w3.org/1999/xlink" viewBox="0 0 1920 1080"><defs><style>.cls-1{fill:url(#未命名的渐变_11);}.cls-2{fill:url(#未命名的渐变_15);}.cls-3{fill:#026179;}.cls-4{fill:url(#未命名的渐变_194);}.cls-5{fill:#fceac2;}.cls-6{fill:#011712;}.cls-7{fill:#d88253;}.cls-8{fill:url(#未命名的渐变_102);}.cls-9{fill:#c87524;}.cls-10{fill:#de1d26;}.cls-11{fill:url(#未命名的渐变_77);}.cls-12{fill:#ffb68e;}.cls-13{fill:#033613;}.cls-14{fill:#071506;}.cls-15{fill:#2f1813;}.cls-16{fill:url(#未命名的渐变_175);}.cls-17{fill:#016800;}.cls-18{fill:#5f0604;}.cls-19{fill:#fc840c;}.cls-20{fill:#da171a;}.cls-21{fill:#522d34;}.cls-22{fill:url(#未命名的渐变_85);}.cls-23{fill:#022008;}.cls-24{fill:#01581b;}.cls-25{fill:#210102;}.cls-26{fill:#021d16;}.cls-27{fill:#bc4e13;}.cls-28{fill:#84460b;}.cls-29{fill:#7e4005;}.cls-30{fill:#ed8a47;}.cls-31{fill:#412323;}.cls-32{fill:url(#未命名的渐变_76);}.cls-33,.cls-56{fill:none;stroke-miterlimit:10;stroke-width:0.1px;}.cls-33{stroke:url(#未命名的渐变_11-2);}.cls-34{fill:#fefee6;}.cls-35{fill:url(#未命名的渐变_77-2);}.cls-36{fill:#e68858;}.cls-37{fill:#482b3f;}.cls-38{fill:#f7a172;}.cls-39{fill:url(#未命名的渐变_100);}.cls-40{fill:url(#未命名的渐变_85-2);}.cls-41{fill:#6b2a0a;}.cls-42{fill:#d6895f;}.cls-43{fill:url(#未命名的渐变_58);}.cls-44{fill:url(#未命名的渐变_43);}.cls-45{fill:url(#未命名的渐变_58-2);}.cls-46{fill:url(#未命名的渐变_51);}.cls-47{fill:#5f170b;}.cls-48{fill:url(#未命名的渐变_51-2);}.cls-49{fill:url(#未命名的渐变_51-3);}.cls-50{fill:#5d1008;}.cls-51{fill:#290302;}.cls-52{fill:url(#未命名的渐变_51-4);}.cls-53{fill:#ed804a;}.cls-54{fill:#b16102;}.cls-55{fill:url(#未命名的渐变_88);}.cls-56{stroke:url(#未命名的渐变_11-3);}.cls-57{fill:#290102;}.cls-58{fill:#d24728;}.cls-59{fill:url(#未命名的渐变_85-3);}.cls-60{fill:#cf412b;}.cls-61{fill:#d84931;}.cls-62{fill:url(#未命名的渐变_118);}.cls-63{fill:url(#未命名的渐变_88-2);}.cls-64{fill:url(#未命名的渐变_77-3);}.cls-65{fill:url(#未命名的渐变_71);}.cls-66{fill:#ffba89;}.cls-67{fill:url(#未命名的渐变_77-4);}.cls-68{fill:#45283c;}.cls-69{fill:#fcf2cf;}.cls-70{fill:url(#未命名的渐变_58-3);}.cls-71{fill:#571308;}.cls-72{fill:#f18649;}.cls-73{fill:url(#未命名的渐变_43-2);}.cls-74{fill:url(#未命名的渐变_51-5);}.cls-75{fill:url(#未命名的渐变_88-3);}.cls-76{fill:#021a02;}.cls-77{fill:#01491a;}.cls-78{fill:#00320b;}.cls-79{fill:#043112;}.cls-80{fill:url(#未命名的渐变_85-4);}.cls-81{fill:url(#未命名的渐变_88-4);}.cls-82{fill:#34041a;}.cls-83{fill:url(#未命名的渐变_88-5);}.cls-84{fill:#a7681b;}.cls-85{fill:#290200;}.cls-86{fill:url(#未命名的渐变_100-2);}.cls-87{fill:url(#未命名的渐变_88-6);}.cls-88{fill:url(#未命名的渐变_119);}.cls-89{fill:url(#未命名的渐变_122);}.cls-90{fill:url(#未命名的渐变_119-2);}.cls-91{fill:#4a312d;}.cls-92{fill:#ed8848;}.cls-93{fill:url(#未命名的渐变_119-3);}.cls-94{fill:url(#未命名的渐变_119-4);}.cls-95{fill:#0b0c04;}.cls-96{fill:url(#未命名的渐变_135);}.cls-97{fill:#612203;}.cls-98{fill:#351321;}.cls-99{fill:#f28a4b;}.cls-100{fill:url(#未命名的渐变_159);}.cls-101{fill:#3d131d;}.cls-102{fill:#e6a68b;}.cls-103{fill:url(#未命名的渐变_159-2);}.cls-104{fill:url(#未命名的渐变_137);}.cls-105{fill:#352122;}.cls-106{fill:url(#未命名的渐变_137-2);}.cls-107{fill:url(#未命名的渐变_159-3);}.cls-108{fill:url(#未命名的渐变_137-3);}.cls-109{fill:url(#未命名的渐变_160);}.cls-110{fill:url(#未命名的渐变_139);}.cls-111{fill:#f28c66;}.cls-112{fill:url(#未命名的渐变_160-2);}.cls-113{fill:url(#未命名的渐变_162);}.cls-114{fill:url(#未命名的渐变_175-2);}.cls-115{fill:url(#未命名的渐变_175-3);}.cls-116{fill:url(#未命名的渐变_175-4);}.cls-117{fill:url(#未命名的渐变_160-3);}.cls-118{fill:url(#未命名的渐变_162-2);}.cls-119{fill:url(#未命名的渐变_180);}.cls-120{fill:#cb9686;}.cls-121{fill:url(#未命名的渐变_180-2);}.cls-122{fill:url(#未命名的渐变_175-5);}.cls-123{fill:#026405;}.cls-124{fill:#070304;}.cls-125{fill:#050000;}.cls-126{fill:#000100;}.cls-127{fill:#010302;}.cls-128{fill:#580203;}.cls-129{fill:#030102;}.cls-130{fill:#262c08;}.cls-131{fill:#002d19;}.cls-132{fill:#030207;}.cls-133{fill:#0a0809;}.cls-134{fill:#043215;}.cls-135{fill:#5d0805;}.cls-136{fill:url(#未命名的渐变_8);}.cls-137{fill:#caaead;}</style><linearGradient id="未命名的渐变_11" x1="959.89" y1="1072.54" x2="959.89" y2="617.88" gradientUnits="userSpaceOnUse"><stop offset="0" stop-color="#026c83"/><stop offset="1" stop-color="#03988f"/></linearGradient><linearGradient id="未命名的渐变_15" x1="959.89" y1="1066.51" x2="959.89" y2="611.84" gradientTransform="matrix(1, 0, 0, -1.31, 0, 1406.78)" gradientUnits="userSpaceOnUse"><stop offset="0" stop-color="#41a7bb"/><stop offset="1" stop-color="#78efcf"/></linearGradient><linearGradient id="未命名的渐变_194" x1="1289.89" y1="1077.03" x2="1289.89" y2="437.49" gradientUnits="userSpaceOnUse"><stop offset="0" stop-color="#f7b85b"/><stop offset="0.35" stop-color="#f3c475"/><stop offset="0.75" stop-color="#efce8d"/><stop offset="1" stop-color="#eed296"/></linearGradient><linearGradient id="未命名的渐变_102" x1="1201.54" y1="495.58" x2="1172.51" y2="495.77" gradientUnits="userSpaceOnUse"><stop offset="0" stop-color="#717755"/><stop offset="0.01" stop-color="#727755"/><stop offset="0.44" stop-color="#997853"/><stop offset="0.79" stop-color="#b17951"/><stop offset="1" stop-color="#ba7951"/></linearGradient><linearGradient id="未命名的渐变_77" x1="1175.89" y1="443.15" x2="1175.89" y2="536.79" gradientUnits="userSpaceOnUse"><stop offset="0" stop-color="#796a55"/><stop offset="1" stop-color="#2e021b"/></linearGradient><linearGradient id="未命名的渐变_175" x1="941.84" y1="979.19" x2="977.22" y2="901.95" gradientTransform="matrix(-2.21, -0.13, -0.05, 0.89, 3245.71, 221.7)" gradientUnits="userSpaceOnUse"><stop offset="0.39" stop-color="#3a120c"/><stop offset="0.57" stop-color="#402b19"/><stop offset="0.85" stop-color="#494b29"/><stop offset="1" stop-color="#4c572f"/></linearGradient><linearGradient id="未命名的渐变_85" x1="1485.55" y1="396.17" x2="1631.16" y2="396.17" gradientUnits="userSpaceOnUse"><stop offset="0" stop-color="#eea36d"/><stop offset="1" stop-color="#ee8744"/></linearGradient><linearGradient id="未命名的渐变_76" x1="743.79" y1="568.12" x2="743.79" y2="610.46" gradientUnits="userSpaceOnUse"><stop offset="0" stop-color="#512b1b"/><stop offset="1" stop-color="#2e021b"/></linearGradient><linearGradient id="未命名的渐变_11-2" x1="807.68" y1="598.55" x2="807.68" y2="593.27" xlink:href="#未命名的渐变_11"/><linearGradient id="未命名的渐变_77-2" x1="935.23" y1="492.3" x2="935.23" y2="593.33" xlink:href="#未命名的渐变_77"/><linearGradient id="未命名的渐变_100" x1="1131.85" y1="433.18" x2="1068.52" y2="606.52" gradientUnits="userSpaceOnUse"><stop offset="0" stop-color="#796a55"/><stop offset="0.24" stop-color="#624a43"/><stop offset="0.57" stop-color="#46232d"/><stop offset="0.84" stop-color="#340b20"/><stop offset="1" stop-color="#2e021b"/></linearGradient><linearGradient id="未命名的渐变_85-2" x1="970.64" y1="551.36" x2="1091.87" y2="551.36" xlink:href="#未命名的渐变_85"/><linearGradient id="未命名的渐变_58" x1="892.53" y1="501.1" x2="980.96" y2="501.1" gradientUnits="userSpaceOnUse"><stop offset="0" stop-color="#009676"/><stop offset="1" stop-color="#004700"/></linearGradient><linearGradient id="未命名的渐变_43" x1="940.29" y1="500.7" x2="998.14" y2="500.7" gradientUnits="userSpaceOnUse"><stop offset="0" stop-color="#004700"/><stop offset="1" stop-color="#003904"/></linearGradient><linearGradient id="未命名的渐变_58-2" x1="1009.33" y1="395.46" x2="1227.44" y2="395.46" xlink:href="#未命名的渐变_58"/><linearGradient id="未命名的渐变_51" x1="924.48" y1="496.15" x2="984.49" y2="496.15" gradientUnits="userSpaceOnUse"><stop offset="0" stop-color="#004700"/><stop offset="1" stop-color="#002a00"/></linearGradient><linearGradient id="未命名的渐变_51-2" x1="1157.35" y1="390.79" x2="1296.15" y2="390.79" xlink:href="#未命名的渐变_51"/><linearGradient id="未命名的渐变_51-3" x1="951.64" y1="360.8" x2="1234.13" y2="360.8" xlink:href="#未命名的渐变_51"/><linearGradient id="未命名的渐变_51-4" x1="1192.46" y1="341.8" x2="1526.48" y2="341.8" xlink:href="#未命名的渐变_51"/><linearGradient id="未命名的渐变_88" x1="1128.53" y1="549.18" x2="1171.45" y2="549.18" gradientUnits="userSpaceOnUse"><stop offset="0" stop-color="#ec8b56"/><stop offset="1" stop-color="#b8867d"/></linearGradient><linearGradient id="未命名的渐变_11-3" x1="1116.92" y1="610.26" x2="1116.92" y2="537.9" xlink:href="#未命名的渐变_11"/><linearGradient id="未命名的渐变_85-3" x1="1071.36" y1="545.12" x2="1071.36" y2="610.73" xlink:href="#未命名的渐变_85"/><linearGradient id="未命名的渐变_118" x1="1234.5" y1="678.88" x2="1509.29" y2="355.53" gradientUnits="userSpaceOnUse"><stop offset="0" stop-color="#2e021b"/><stop offset="0" stop-color="#2e021b"/><stop offset="0.38" stop-color="#3c1b24"/><stop offset="0.72" stop-color="#442b29"/><stop offset="1" stop-color="#47302b"/></linearGradient><linearGradient id="未命名的渐变_88-2" x1="1103.06" y1="530.92" x2="1362.28" y2="530.92" xlink:href="#未命名的渐变_88"/><linearGradient id="未命名的渐变_77-3" x1="911.73" y1="539.41" x2="911.73" y2="609.66" xlink:href="#未命名的渐变_77"/><linearGradient id="未命名的渐变_71" x1="772.99" y1="591.96" x2="787.42" y2="615.84" gradientUnits="userSpaceOnUse"><stop offset="0" stop-color="#5d4a2c"/><stop offset="1" stop-color="#45302d"/></linearGradient><linearGradient id="未命名的渐变_77-4" x1="952.64" y1="529.63" x2="952.64" y2="623.27" xlink:href="#未命名的渐变_77"/><linearGradient id="未命名的渐变_58-3" x1="1559.15" y1="74.08" x2="1939.33" y2="74.08" gradientTransform="matrix(1.01, 0.14, 0, 1, -15.15, -259)" xlink:href="#未命名的渐变_58"/><linearGradient id="未命名的渐变_43-2" x1="1764.48" y1="72.28" x2="2013.19" y2="72.28" gradientTransform="matrix(1.01, 0.14, 0, 1, -15.15, -259)" xlink:href="#未命名的渐变_43"/><linearGradient id="未命名的渐变_51-5" x1="1696.5" y1="52.45" x2="1954.52" y2="52.45" gradientTransform="matrix(1.01, 0.14, 0, 1, -15.15, -259)" xlink:href="#未命名的渐变_51"/><linearGradient id="未命名的渐变_88-3" x1="1163.5" y1="547.63" x2="1306.89" y2="547.63" xlink:href="#未命名的渐变_88"/><linearGradient id="未命名的渐变_85-4" x1="1267.82" y1="511.21" x2="1363.57" y2="511.21" xlink:href="#未命名的渐变_85"/><linearGradient id="未命名的渐变_88-4" x1="1362.81" y1="509.15" x2="1209.81" y2="600.82" xlink:href="#未命名的渐变_88"/><linearGradient id="未命名的渐变_88-5" x1="1345.24" y1="580.02" x2="1295.77" y2="609.66" xlink:href="#未命名的渐变_88"/><linearGradient id="未命名的渐变_100-2" x1="1646.37" y1="174.96" x2="1646.37" y2="609.46" xlink:href="#未命名的渐变_100"/><linearGradient id="未命名的渐变_88-6" x1="1569.8" y1="409.61" x2="1239.59" y2="607.45" xlink:href="#未命名的渐变_88"/><linearGradient id="未命名的渐变_119" x1="1390.01" y1="626.58" x2="1647.74" y2="379.61" gradientUnits="userSpaceOnUse"><stop offset="0" stop-color="#b8867d"/><stop offset="1" stop-color="#ec8b56"/></linearGradient><linearGradient id="未命名的渐变_122" x1="1533.83" y1="374.03" x2="1859.06" y2="374.03" gradientUnits="userSpaceOnUse"><stop offset="0" stop-color="#b8867d"/><stop offset="0.23" stop-color="#d1886f"/><stop offset="0.52" stop-color="#ea8a61"/><stop offset="0.79" stop-color="#fa8b59"/><stop offset="1" stop-color="#ff8b56"/></linearGradient><linearGradient id="未命名的渐变_119-2" x1="1398.84" y1="586.59" x2="1535.68" y2="586.59" xlink:href="#未命名的渐变_119"/><linearGradient id="未命名的渐变_119-3" x1="1564.05" y1="528.41" x2="1636.65" y2="528.41" xlink:href="#未命名的渐变_119"/><linearGradient id="未命名的渐变_119-4" x1="1594.45" y1="491.8" x2="1758.27" y2="491.8" xlink:href="#未命名的渐变_119"/><linearGradient id="未命名的渐变_135" x1="1716.29" y1="529.44" x2="1914.96" y2="314.11" gradientUnits="userSpaceOnUse"><stop offset="0" stop-color="#b69798"/><stop offset="1" stop-color="#ec8b56"/></linearGradient><linearGradient id="未命名的渐变_159" x1="1082.8" y1="717.37" x2="1389.73" y2="717.37" gradientUnits="userSpaceOnUse"><stop offset="0" stop-color="#4c302f"/><stop offset="0.36" stop-color="#402828"/><stop offset="1" stop-color="#201414"/></linearGradient><linearGradient id="未命名的渐变_159-2" x1="1696.29" y1="357.2" x2="1635.03" y2="689.35" xlink:href="#未命名的渐变_159"/><linearGradient id="未命名的渐变_137" x1="1567.87" y1="427.77" x2="1567.87" y2="935.96" gradientUnits="userSpaceOnUse"><stop offset="0" stop-color="#b67e65"/><stop offset="0.21" stop-color="#9b6e60"/><stop offset="0.56" stop-color="#74585a"/><stop offset="0.83" stop-color="#5c4a56"/><stop offset="1" stop-color="#534554"/></linearGradient><linearGradient id="未命名的渐变_137-2" x1="2083.66" y1="534.54" x2="1402.62" y2="1073.41" xlink:href="#未命名的渐变_137"/><linearGradient id="未命名的渐变_159-3" x1="1623.17" y1="784.56" x2="1494.17" y2="1023.56" xlink:href="#未命名的渐变_159"/><linearGradient id="未命名的渐变_137-3" x1="1857.12" y1="851.39" x2="1021.12" y2="1192.39" xlink:href="#未命名的渐变_137"/><linearGradient id="未命名的渐变_160" x1="1277.56" y1="717.19" x2="1166.4" y2="717.19" gradientUnits="userSpaceOnUse"><stop offset="0" stop-color="#4c302f"/><stop offset="1" stop-color="#503836"/></linearGradient><linearGradient id="未命名的渐变_139" x1="1184.48" y1="749.92" x2="1329.87" y2="617.5" gradientUnits="userSpaceOnUse"><stop offset="0" stop-color="#201414"/><stop offset="0.39" stop-color="#392c33"/><stop offset="0.77" stop-color="#4c3e4b"/><stop offset="1" stop-color="#534554"/></linearGradient><linearGradient id="未命名的渐变_160-2" x1="890.07" y1="856.39" x2="906.41" y2="820.72" xlink:href="#未命名的渐变_160"/><linearGradient id="未命名的渐变_162" x1="910.36" y1="803" x2="853.49" y2="908.37" gradientUnits="userSpaceOnUse"><stop offset="0" stop-color="#f28c66"/><stop offset="0.45" stop-color="#ec9472"/><stop offset="1" stop-color="#e3a387"/></linearGradient><linearGradient id="未命名的渐变_175-2" x1="870.68" y1="905.74" x2="887.93" y2="868.07" gradientTransform="matrix(1, 0, 0, 1, 0, 0)" xlink:href="#未命名的渐变_175"/><linearGradient id="未命名的渐变_175-3" x1="922.83" y1="898.41" x2="921.45" y2="870.21" gradientTransform="matrix(1, 0, 0, 1, 0, 0)" xlink:href="#未命名的渐变_175"/><linearGradient id="未命名的渐变_175-4" x1="933.72" y1="911.17" x2="933.72" y2="873.57" gradientTransform="matrix(1, 0, 0, 1, 0, 0)" xlink:href="#未命名的渐变_175"/><linearGradient id="未命名的渐变_160-3" x1="1035.78" y1="844.58" x2="1048.11" y2="818.86" xlink:href="#未命名的渐变_160"/><linearGradient id="未命名的渐变_162-2" x1="996.92" y1="875.75" x2="1077.13" y2="824.86" xlink:href="#未命名的渐变_162"/><linearGradient id="未命名的渐变_180" x1="1127.15" y1="967.8" x2="1128.65" y2="915.8" gradientUnits="userSpaceOnUse"><stop offset="0" stop-color="#2f1316"/><stop offset="0.41" stop-color="#3a1f21"/><stop offset="1" stop-color="#503836"/></linearGradient><linearGradient id="未命名的渐变_180-2" x1="1083.86" y1="1039.56" x2="1084.99" y2="1000.21" xlink:href="#未命名的渐变_180"/><linearGradient id="未命名的渐变_175-5" x1="1020.17" y1="999.78" x2="984.86" y2="872.12" gradientTransform="matrix(1, 0, 0, 1, 0, 0)" xlink:href="#未命名的渐变_175"/><linearGradient id="未命名的渐变_8" x1="-0.11" y1="964.96" x2="486.01" y2="964.96" gradientUnits="userSpaceOnUse"><stop offset="0" stop-color="#3c323b"/><stop offset="1" stop-color="#524451"/></linearGradient></defs><title>大屏背景</title><rect class="cls-1" x="-0.11" y="612.42" width="1920" height="467.54"/><rect class="cls-2" x="-0.11" y="-0.04" width="1920" height="612.46"/><path class="cls-3" d="M-.32,845.68s9.17,1.83,80.69-1.83,135.71,11,155.88,12.84S267.42,864,206.91,864,7,880.53,128,880.53s265.91-9.17,341.1-11,135.71,0,104.53-14.67,40.34-3.67,124.7-3.67,152.21,20.17,152.21,20.17l16.5,66L647,1067.58l-363.1,62.35-311.75-49.51Z"/><path class="cls-4" d="M1128.7,610.84s86.1-2.65,103.15,2.36,10.29,7.36,47,8.54,90.51,2.94,90.51,2.94,57.43-.38,63.13,2-9.39,4.37-9.39,4.37l-14.41,2.35,20.11,6.72-52,17.13L1470.38,677l-8,7.72L1349,693.47l-230,54.4,116,11.08,109.28,30.22L1206.9,815.37l-126.71,34.25L807.32,871.11l-69.05,25.52,58.33,16.12,44.92,18.13L651.78,996l58.33,86H1928V585.93Z"/><path class="cls-5" d="M486,1081.2s94.78-20.51,131.44-32.1,35.77-25.86-11.62-32.1-105.51-16,17-39.23,152.9-22.29,127-32.1,10.73-6.24,34.87-8.92,65.27-8.92,17.88-18.72-215.61-19.46-134.15-29.49,112.63-7,85-15.54-4-7.52,18.1-10,33.69-4.51,15.59-9.53-2.51-5.52,18.1-6.52,249.9-6,249.9-6,75.42,1,11.06-14-78.44-18-15.08-20.05,178,0,204.15-5,49.28-5,15.08-14-27.15-13-13.07-15-28.16-3-57.32-6-39.56-7-17.77-9.36,22.46-4,0-3.68-117.33,4-145.15-6c0,0-83.13,9-119.34,6,0,0,103.25-2.67,170.63-24.73,0,0-27.15,32.42,30.84,18,0,0,68.72,8.36,99.56,6.68l48.94-.67s32.85,5.68,55.65,7,110.29,5.68,114.64,14.37-34.53,6.68-55.65,15.71-11.73,21.39-69.05,24.07-112.3,10-67,14.37,94.87,6,52.63,11.36S1106,855,1045.33,857s-180.68,13.37-180.68,13.37l-40.9,21.39s-49.28-2.34-58.66,3.68-17.77,5,34.86,10,46.6,3.68,41.23,6.35,63,3.34,71.4,6-14.41,4.35-22.79,3.68-28.49-5.68-31.85,0,38.55,3.34,43.24,8.36-36.54,7-45.25,10.36-13.41,3.34-6,9.36-89.17,21.73-114,27.41-75.76,16,2,23.06,92.52,7.35,116.32,14.37,53.63,7,81.79,8.69,119,8,119,8l-21.12,5.35s-13.07,2.67-85.48-6-178-5.68-193.42,1,0-1.67,75.76,7.69,159.23,8,190.07,5,15.08,6.35,15.08,6.35-18.77,2.34-23.47,5.35-8.72,7.35,27.15,13.37,43.91,11,43.91,11Z"/><path class="cls-5" d="M1317.68,689s21.6-2.12,40.46-3.64,87.92-3,94-4.85,14.3-2.73-8.82-3.94-97.65,1.52-87.31-11.83-15.82-4.85-43.2-9.1-32.86-4.55-11.56-6.67,28,2.12,47.15-4.85,37.72.61,52-1.21,10.34-4.85-4.26-7-35.9-5.16-2.43-6.67,38.33-.61,38.33-.61l-13.39,3.94s4.87,1.21,20.69,1.21,68.14,1.82,68.45,3.34-23.12,1.21-21.6,4.25,27.68,2.73,29.81,6.37-1.83,6.07-33.16,6.37-67.54-.61-70,4.25,63,6.67,72.1,10.62-9.73,4.25,5.78,6.37,45,3.64,56.58,5.76-2.74,4.55-25.25,5.16-116.82,3.64-132.94,7.28-3,5.76,17.95,7.89,42.89,5.76,35,9.4-94.31,9.71-94.31,9.71Z"/><path class="cls-6" d="M1161.57,496.55s.67-13.38,12.49-12.93c0,0,2-11.15,12-14.27s18.28-1.56,25.42,8.25c0,0,2.45-9.81,14.49-6.47,0,0,2.23-9.37,15.83-8,0,0,16.72-12.49,30.1,6.47l-18.28,16.72-67.56,26.09Z"/><path class="cls-7" d="M1208.62,474.25v-.12c-6.46-6.67-13.82-7.5-22.53-4.79-10,3.12-12,14.27-12,14.27-11.82-.45-12.49,12.93-12.49,12.93l9.82,6.34c.24-4.5,1.79-13.43,10.25-14.59C1181.64,488.3,1183.42,464.66,1208.62,474.25Z"/><path class="cls-8" d="M1171.39,502.89s2.67-11.69,13.81-11c0,0,4.24-7.8,15.39-3.79,0,0,2.68-11.37,16.5-8.25,0,0-12.49,1.34-10,7.36,0,0,4-2.45,7.8,2,0,0-7.36.67-9.37,4.24,0,0-5.57.22-5.57,7.14s-19,11.37-19,11.37Z"/><path class="cls-9" d="M1082,995.51c2.33-1.33-81.72-5.12-86.59-.71,2,2.89,20.26,4.36,23.8,4.44C1025.43,999.37,1079.67,996.84,1082,995.51Z"/><path class="cls-9" d="M958.67,905.51c2.33-1.33-81.72-5.12-86.59-.71,2,2.89,20.26,4.36,23.8,4.44C902.09,909.37,956.34,906.84,958.67,905.51Z"/><path class="cls-9" d="M949.25,902.53c1.26-1.29-41.11-6.72-43.83-2.4.82,2.93,10,4.77,11.8,4.91C920.36,905.29,948,903.82,949.25,902.53Z"/><path class="cls-9" d="M1446.95,751.06c-4.32-1-36.09-2.88-44.37-3-.54,0-5.3-8.9-6.57-8.95-1.84-.06-24-2.31-27.24-2.57-8.09-.64,10.66,15.77,20.5,15.83C1408.57,752.49,1441.15,751.7,1446.95,751.06Z"/><path class="cls-9" d="M1259.95,982.21c4.58-.22,97.47,1.55,142.57.12,6.36-.2-22.08,17.53-27.67,20.58-15.61,8.51,60,4.75,47.54,19.87-14.3,17.41-89.89,49-18.47,47.42,86.64-1.93,97.23,2.89,219.48-3.85,47.8-2.63,26.88-41.7,51-41.39,76,1,249,5.23,249.63-3.59,6.39-90.83-334.44-56.32-332.79-56.77,8.58-2.29-251.58-9.94-320-8.51-34.73.72-174.45,13.53-208.54,16.14-23.12,1.77-87.32.44-104.8,7.94,8.18,4.78,78.44,6.71,91.95,6.73q35.62.06,71.27-.42Q1190.61,985.53,1259.95,982.21Z"/><path class="cls-10" d="M435.62,918.73s3.32,2.27,4.2,8.75-4.72,5.77-4.72,5.77-4.2-2.62-3.85-5.77S435.62,918.73,435.62,918.73Z"/><path class="cls-11" d="M1119.64,518.31l31-20s.17-2.33,11.33-1.67,52.33,2.67,52.33,2.67L1232.14,524,1121,523.31Z"/><path class="cls-12" d="M1154.14,501.64s1.33-3.33,9.33-3.17c6.89.14,41.44.78,50.92,1l-.09-.12s-41.17-2-52.33-2.67-11.33,1.67-11.33,1.67l-31,20,1.33,5,7.75,0-1.06-2Z"/><path class="cls-9" d="M1231.6,1046.76c3.82-2.17-85.06-12.35-100.2-10.26-10.27,1.42-25.38,4.08-33.18,11.37,3.6,4.94,21.4,3,27.4,3.21C1136.16,1051.49,1227.78,1048.93,1231.6,1046.76Z"/><path class="cls-9" d="M1018.93,888c3.53-1.94-78.71-11.2-92.72-9.35-9.5,1.25-23.48,3.61-30.67,10.11,3.34,4.43,19.8,2.7,25.35,2.92C930.65,892.09,1015.41,890,1018.93,888Z"/><path class="cls-13" d="M1698.93,296.09a67.29,67.29,0,0,1,10.39-27.21c8.84-13.09,21.48-12.56,21.48-12.56s-10.46-28.28,23.08-34.54c0,0,6.65-39.31,47.24-28.46,0,0,16.39-22.42,45.36-9.56,0,0,6.11,7,27.93,3.4l-19.08,26.6Z"/><path class="cls-14" d="M1705.65,303.11s6.09-32.11,36.39-31c0,0-1.19-40,43.7-31.05,0,0,9.88.35,11-10.07s-13.62-9.6-13.62-9.6,10.26-21.46,46.57-20.62c0,0,29.65,1,44.73-13.64s39-13.35,42.12,6.9l-18.15,55.52Z"/><path class="cls-10" d="M407.27,914.88l3.67,2.45s-.87,10-3,12.6l-3.5-2.45Z"/><path class="cls-10" d="M417.42,906.48s8,3.67,3.5,18.2l-5.42,5.07Z"/><path class="cls-15" d="M415.85,927.65s4.9-10.32,1.57-21.17c0,0-5.95,11.72-3.15,22.74l-10.15,11,6.65-11.37s-5.6,1-6.12-3.67l-6.47,21.17,7-3.15s3,4.55,9.27,2.45,5.07-12.07,5.07-12.07l-8.75,4,6.12-6.47a7.15,7.15,0,0,0,8.22-2.1c3.85-4.2,3.5-17.5,3.5-17.5l-2.8-3.85S426.34,922.93,415.85,927.65Z"/><path class="cls-16" d="M1091.38,975s18.94-41.91,15.79-68.17c0,0-17,41.57-21.59,45,0,0,2.48-35.08-2-48.15,0,0-6.54,23-6.27,39,0,0-9.42-32.11-13.53-46.52,0,0-3.14,19-2.26,25.49L1055,900.19a331.37,331.37,0,0,0,2,49.52s-12.43-27.71-16.18-43.47c0,0,.23,35.7,18.42,61.9a31.81,31.81,0,0,0,13.18,4C1079.77,972.53,1091.38,975,1091.38,975Z"/><path class="cls-17" d="M1085.58,951.82c4.57-3.4,21.59-45,21.59-45s-11,41.11-20.22,56.08Z"/><path class="cls-17" d="M1077.36,939.42c.45-13.55,4.76-30.33,5.94-34.67l.3-1.08-3.46,50.67Z"/><path class="cls-17" d="M1061.54,921.61c-.88-6.46,2.26-25.49,2.26-25.49,2.29,26.44,7.72,63.49,7.72,63.49C1063.66,934.85,1061.54,921.61,1061.54,921.61Z"/><path class="cls-17" d="M1057,949.44c-1.26-10.41-1.82-20.44-2-28.72l.06-20.52s3.28,49.24,7.06,60.7Z"/><path class="cls-10" d="M447.83,907s11.33,0,16.46-2.7,1.08-4.32-1.62-6.75-9.44-9.17-11.6-11.06-5.67.27-6.48,11.33S447.83,907,447.83,907Z"/><path class="cls-18" d="M428.41,914.83s-5.4-7.55-5.67-13-2.7-12.14,5.94-13.49l4.59,7,.81-10.25s3.78-6.21,10.25-1.35c0,0-1.61,9-.79,11.5-1.82,5.33,9.16,9.28,9.16,9.28l-5.13,2.7,10.25,5.13-8.9,2.7a71.42,71.42,0,0,1-16.19,3.78C422.47,920.22,428.41,914.83,428.41,914.83Z"/><path class="cls-10" d="M431.64,904s1.08-1.89-1.89-3.78-10-4.59-1.08-11.87l4.59,7Z"/><path class="cls-10" d="M432.45,908.89l6.75-22.39s-3,3-5.13-1.35c0,0,2.16-6.75,10.25-1.35l-1.62,10.52Z"/><path class="cls-19" d="M452.72,904.6A22.24,22.24,0,0,1,444.1,899c3-3.54,4.54-3.63,5.28-2.47A29.89,29.89,0,0,1,452.72,904.6Z"/><path class="cls-20" d="M436.5,913.21s8.09-3.24,10-3.51l2.43,5.4s4.55,10.46,10.5,3.63c4.85-5.57-11.58-11.73-11.58-11.73Z"/><path class="cls-10" d="M455.59,1014.87s10.19,5,16,4.78,2.86-3.41,1.5-6.77-4.47-12.38-5.59-15-5.21-2.24-10.78,7.35S455.59,1014.87,455.59,1014.87Z"/><path class="cls-18" d="M434.69,1013.4s-1.54-9.15.58-14.12,2.89-12.1,11.24-9.53l1.05,8.32,5.22-8.86s6.11-3.93,9.81,3.28c0,0-5.37,7.35-5.75,10-4,4,4.17,12.35,4.17,12.35l-5.79.18,7,9.1-9.19-1.47a71.42,71.42,0,0,1-16.21-3.69C427,1015.65,434.69,1013.4,434.69,1013.4Z"/><path class="cls-10" d="M442.33,1005.11s1.8-1.23,0-4.22-7-8.49,4.23-11.15l1.05,8.32Z"/><path class="cls-10" d="M440.93,1009.83l15.87-17.18s-4,1.37-4-3.46c0,0,4.89-5.12,9.81,3.28l-6.06,8.75Z"/><path class="cls-19" d="M461,1014.84a22.24,22.24,0,0,1-5.32-8.77c4.21-1.89,5.67-1.28,5.83.09A29.89,29.89,0,0,1,461,1014.84Z"/><path class="cls-20" d="M442.68,1015.49s8.7.63,10.51,1.22l-.18,5.91s-.49,11.39,7.85,7.86c6.8-2.88-5.27-15.61-5.27-15.61Z"/><polygon class="cls-21" points="1488.51 427.46 1536.55 400.37 1566.16 399.53 1615.6 367.68 1631.8 366.29 1576.5 425.5 1498.56 435.28 1488.51 427.46"/><path class="cls-22" d="M1485.55,421.88s29.06-20,44.1-22.27,25.45,2.75,37.31-3,35.86-34.12,64.2-32.25l-2.89,3.18s-8-1.45-25.3,11.28-20,24.11-52.2,22c-21.83-1.45-54.95,27.33-54.95,27.33Z"/><path class="cls-23" d="M1353.33,457.59s4.65-11.91,27-13.94c0,0,27-20.92,68.56-17.43,0,0,27.6-14.53,60.43.87,0,0,24.11,6.39,46.48,0s26.73-8.13,26.73-8.13l-10.65,12.51-108.17,27.29-41,28.47Z"/><path class="cls-24" d="M1385.28,449.74s6.31-10,16.63-12.21c0,0-8.15,1.36-11.11,15.41,0,0,31.44-34.13,77.86-23.24,0,0-41-1.7-67.69,26.15,0,0,13.89-6.91,23.77-2.55,0,0,9-13.86,17.12-14.94,0,0-6,4.08-10.32,14.4,0,0,19-17.12,42.07-17.82,20.88-.64,34.86-.35,43.56-6.31-4.84-.75-7.83-1.54-7.83-1.54-32.83-15.4-60.43-.87-60.43-.87-46.22-6-68.56,17.43-68.56,17.43-22.37,2-27,13.94-27,13.94S1369.59,447.42,1385.28,449.74Z"/><path class="cls-25" d="M1103.06,611.29s3.5-8.5,16-16.33,25.33-9.25,35.08-13.25,24.75-16,44-37.5,70-73.25,70-73.25,1.25-6.25,14.25-8.75,12.5.75,24.75-4.25,13.75-12,43.5-3.25S1405.89,482,1405.89,482L1133.14,610Z"/><path class="cls-26" d="M975.47,528.25s12.3-4.64,19.16-.81c0,0,18.35-10.89,28.43-9.07,0,0,13.31-10.08,31.66-1,0,0,11.49-4.44,21,.81l-24.4,29.44-51.63,21.78-20,1.61s4.64-.6,10.89-6.65,17.34-20.17,28-19.36l-34-15.26S981.32,527.64,975.47,528.25Z"/><path class="cls-27" d="M1023.06,518.37c-10.08-1.82-28.43,9.07-28.43,9.07s10.69-4.23,17.34-1.61a7,7,0,0,1,6.65-2.42,5,5,0,0,0-2.22,6.25,14.9,14.9,0,0,1,12.91-6s12.1-9.28,25.41-6.25C1036.37,508.28,1023.06,518.37,1023.06,518.37Z"/><path class="cls-28" d="M1042.83,526.43a23.1,23.1,0,0,0-17.54,4.23c9.07-2.62,25.41-.4,25.41-.4,2.42-5.65,5.85-5.85,5.85-5.85a3.88,3.88,0,0,0-2,3.83c5.25-3.94,12.93-4.61,16.78-4.67l4.4-5.41C1057.35,515.75,1042.83,526.43,1042.83,526.43Z"/><path class="cls-29" d="M1063.62,532.74c-4.34.26-21.92,1.73-29.67,8.42L1016.39,544l2.24,1c-10.69-.81-21.78,13.31-28,19.36S979.71,571,979.71,571l2.57-.21.86-.4s11.29-9.28,17.34-10.08c0,0,10.28-14.41,22.58-13.36,0,0-14.92,9.32-17.54,16.18,0,0,15.12-13.11,21.38-10.89,0,0,15.39-15.38,36.6-19.36Z"/><polygon class="cls-30" points="646.24 606.95 656.39 600.46 680.39 591.46 690.39 596.46 666.2 608.31 646.24 606.95"/><path class="cls-31" d="M663.93,604.23c7.26-3.78,10.28-8,10.28-8l-6.35.91c-3,5.19-14.66,10.09-15.1,10.28l13.44.92,24.19-11.85-10-5C675.53,600.47,663.93,604.23,663.93,604.23Z"/><path class="cls-32" d="M666.2,608.31l43.41-22.23s26.77,1.51,38.42-2.72l9.38-2.87,29.79-4.69s3.48-1.51,5.9,2.87,8.33,14.46,8.33,14.46c1.91,3.22,5.65,2.81,7.76,3,2.48.17,4.33.43,12.19,11.93l-8.62,1.66-66.24-.45Z"/><path class="cls-30" d="M709.61,586.08l-29.48,18.64s12.31-1.79,33.46-16l13,2.63L715.26,590l-13.38,12.55s32.77-10.81,46.14-19.21l9.38-2.87S742,596.95,718.13,602.92c0,0,18.64-8.6,23.66-13.26,0,0-26.89,14.94-43.62,19l-32-.35Z"/><path class="cls-33" d="M809.18,596.08c-2.07-.14-5.68.24-7.63-2.76l-.25,0s1.79,4.18,4.42,4.66a65.84,65.84,0,0,0,8.29.48C811.79,596.31,810.59,596.18,809.18,596.08Z"/><path class="cls-34" d="M531.39,610H730.23s-58.15-1.52-84-3c0,0-24-1.32-10-8.32,0,0-54.17,15.67-78.5,3.67C557.73,602.29,551.56,607.79,531.39,610Z"/><path class="cls-34" d="M814.11,609.77l38,.28a22.76,22.76,0,0,1-13.27-5.64S833.3,606.8,814.11,609.77Z"/><path class="cls-35" d="M847.39,609.46s38.67-32.83,48-39.33,11-7,21.83-7.5,13.67,3.67,29.83-15,24.67-24.17,40.83-16.5S1023.06,547,1023.06,547l-71.5,49.67-66,13.17Z"/><path class="cls-36" d="M950.28,547.38s8.84-10.26,17.28-15.76c8.87-5.78,15.32-2.15,17.08-1.9-14.12-5.43-22.53.53-37.58,17.9-16.17,18.67-19,14.5-29.83,15s-12.5,1-21.83,7.5-48,39.33-48,39.33l13.65.12,1.35-.12,40.67-36.83s8.33-9.33,19.33-8.5,18,3.83,40.17-24.67Z"/><path class="cls-37" d="M1060.89,624.46s15.83-9.5,18.83-10.17,5.5.67,9.5,2.33,7.17,1.17,11,1.67,8.33,4.5,11.5,6.17l-2,1.17-48,.5Z"/><path class="cls-38" d="M1100.23,618.29c-3.83-.5-7,0-11-1.67s-6.5-3-9.5-2.33-18.83,10.17-18.83,10.17l.83,1.67,3.15,0,11.68-7.63s4-3.5,8-2.17,8.5,3.67,12.33,3.17,4.67,0,7.67,2a22.84,22.84,0,0,0,6,2.35C1107.54,621.92,1103.62,618.73,1100.23,618.29Z"/><path class="cls-39" d="M970.64,572.83s37.79-6.3,72.24-26.18l44-38.1a14.46,14.46,0,0,1,11.6-3.37l122.68,18.27-54.5,56-62.5,30.75-108-1.5-41.75-24.5Z"/><path class="cls-40" d="M989.39,593.71l6.75,3.25,95.72-91.2a14.43,14.43,0,0,0-5,2.8l-44,38.09h0a206.48,206.48,0,0,1-25.82,12.48,246.51,246.51,0,0,1-46.42,13.7,151,151,0,0,0,61-16.37Z"/><path class="cls-41" d="M954.61,512.48s2.3,7,.87,12.94l-2.86,17.23-2.14,3.18v1.51l10.16-8.57s-.48-11.43.87-17.23l7.07-15.08-2.94,4.21,1.51-5.32-5.24,11.75s-2.62,1.11-2.7-.87,1.67-7.22,1.67-7.22-1.59,4.53-2.62,4.76S954.61,512.48,954.61,512.48Z"/><path class="cls-42" d="M955.48,525.42l-.17,1c1.34.15,2.58-.4,2.79-2.83.48-5.64-3.49-11.11-3.49-11.11S956.91,519.46,955.48,525.42Z"/><polygon class="cls-42" points="954.61 541.21 955.32 526.42 952.62 542.64 950.48 545.82 950.48 546.88 954.61 541.21"/><path class="cls-43" d="M956.73,513.54a12.31,12.31,0,0,1-9.67,4.67s-8.58,5.17-17.75,3.17S925.14,520,918.06,520s-25.58-7.17-10.17-12.5,15.33-8.75,6.75-8.83-3.58-2.67,3.67-4.42,10.5-4.33,8.92-5.25-.92-5.33,11.08-6.5,17.75,2.67,22.17.75-1.25-.67-3.5-1.83,6-1.67,14,.42,11.5-.5,15.92-.58,7.33,2,11.08,4.25,5.33,7.25,3,9.17.17,2.25,3.75,3.25,5.92,6.5-1.75,9.92-20.58,6.58-27.75,1.42S960.89,508.87,956.73,513.54Z"/><path class="cls-44" d="M1003,507.79c7.67-3.42,5.33-8.92,1.75-9.92s-6.08-1.33-3.75-3.25.75-6.92-3-9.17-6.67-4.33-11.08-4.25-7.92,2.67-15.92.58-16.25-1.58-14-.42,7.92-.08,3.5,1.83c-4.21,1.83-9.66-1.57-20.57-.87a19,19,0,0,0-6.33,2.58c-5.87,3.29-6,5,1.48,7.87s6,4.67,2.83,7.67-3.33,5.67,2,6,5,4.67-.5,6-16.5,4-11,5.83c2.49.83,7.11,1.87,11.42,2.75a29.3,29.3,0,0,0,7.25-2.84,12.31,12.31,0,0,0,9.67-4.67c4.17-4.67,11.33-9.5,18.5-4.33S995.31,511.21,1003,507.79Z"/><path class="cls-45" d="M1254,421.24a25.51,25.51,0,0,1-20,9.67s-17.78,10.7-36.77,6.56-8.63-2.93-23.3-2.93-48-27.61-21.06-25.89c33.72,2.16,31.76-18.12,14-18.3s-22.08-11.16,2.91-12.31c15.43-.71,24.14-5,20.86-6.88s2.52-8.48,25.22-5c24.69,3.74,36.81-3.73,46-7.7s-2.59-1.38-7.25-3.8,12.43-3.45,29,.86,23.82-1,33-1.21,29.31,6.8,32.29,19c2.16,8.8-9.4-.23-19.72,2.52-6,1.61-5.73,15.82,19.94,20.4,19.13,3.42,12.67,20.43-3.21,27.51s-40.63,8.18-55.48-2.52S1262.62,411.57,1254,421.24Z"/><path class="cls-46" d="M1004.73,497.87c-3.58-1-6.08-1.33-3.75-3.25s.75-6.92-3-9.17-6.67-4.33-11.08-4.25-7.92,2.67-15.92.58-16.25-1.58-14-.42,7.92-.08,3.5,1.83a8.52,8.52,0,0,1-4.24.48c-2.22.3-11.14,1.72-7.18,4.94,4.5,3.67,15.5,4,12.33,7.5s-6.67,4,.33,5.83c6.63,1.74,6.69,1.69,10.07,5.5a12,12,0,0,1,3.43,1.75c7.17,5.17,20.08,2,27.75-1.42S1008.31,498.87,1004.73,497.87Z"/><path class="cls-47" d="M1236.67,421.59s9.4,20.4,11.23,32.55l-11.23,36.91,11.23-5s1.83-20.4,10.09-28,9.17-5,9.17-5,4.36-14.44,17.65-17.42l8.48-28.43-2.75-.23-7.34,26.36a22.81,22.81,0,0,0-11.69,5.73l12.84-33-3.21-.46S1270.82,436,1267.39,442s-9.86,17-15.82,9.4-.92-31.18-.92-31.18l-2.52,1.38s-2.52,10.09-2.29,14L1238.73,417Z"/><path class="cls-48" d="M1345.79,423.65c15.88-7.08,22.34-24.09,3.21-27.51-25.68-4.59-26-18.79-19.95-20.4,10.32-2.75,21.87,6.28,19.72-2.52-3-12.15-23.14-19.13-32.29-19s-16.4,5.52-33,1.21-33.66-3.28-29-.86,16.4-.17,7.25,3.8c-6,2.6-13.23,6.69-24.43,8.17-.43,3.21-3.63,8.22-18.93,9.55-23,2-15,14.67,4.67,15.67s-37.67,9.67-25,16,40.33-1.67,44.67,11.67a13.67,13.67,0,0,0,5.77,6.91,23,23,0,0,0,5.49-5.13c8.63-9.67,21.47-10.81,36.32-.11S1329.91,430.73,1345.79,423.65Z"/><path class="cls-49" d="M1309.37,381.94s8.56,1,3.34,6.26-17.54,12.74-30.27,8.56,3.55,9.39-16.49,13.15-84.35,1.67-72.65-9.39,1.46-13.57-11.9-10-35.7-24,19.83-22.55,4.38-24-6.47-23-13.78-13.78,16.49-14.82c0,0,4-13.57,32.36-6.89s15.87,1.46,14-3.13,7.1-14.41,31.32-8.14,5.85-3.34,33.61,4.18,27.77,3.76,44.26,19.42,27.77,4.18,42,23.17,15,33.82-5.64,38.83-36.74,13.15-58.88,0S1326.28,382.78,1309.37,381.94Z"/><path class="cls-50" d="M1318.56,454l13.17-42.5s12-5.67,7.67-36l2.33-2,2,11.67,1-17.67s-1,16.33,2,16.33c2.61,0,12.79-19.17,15.39-24.16l.61-1.17-5,12.5,13.67-10.33.33,1.5-16.33,13.67s-6.17,8.83-6.5,12.83-.33,10.5,6.67,1.67,19.33-30.17,19.33-30.17l.83,1.17s-13.17,23.67-22.17,34-20,34.67-13.67,58Z"/><path class="cls-51" d="M1134.14,552.76a48.35,48.35,0,0,1,19.05-19.3s7.42-25,37.61-29.19a28.19,28.19,0,0,1,24.49-7.67s19.79-12.37,45-14.1l-44,47.5Z"/><path class="cls-52" d="M1359.37,362.94s8.56,1,3.34,6.26-17.54,12.74-30.27,8.56,3.55,9.39-16.49,13.15-84.35,1.67-72.65-9.39,1.46-13.57-11.9-10-35.7-24,19.83-22.55,4.38-24-6.47-23-13.78-13.78,16.49-14.82c0,0,4-13.57,32.36-6.89s15.87,1.46,14-3.13,7.1-14.41,31.32-8.14,5.85-3.34,33.61,4.18,27.77,3.76,44.26,19.42,27.77,4.18,42,23.17,15,33.82-5.64,38.83-36.74,13.15-58.88,0S1376.28,363.78,1359.37,362.94Z"/><path class="cls-53" d="M1331.89,436l3.33-24.5c7.92-9.48,6.23-19.07,5.1-22.83-.26,18.88-8.6,22.83-8.6,22.83l-11,35.46A22,22,0,0,0,1331.89,436Z"/><path class="cls-54" d="M1190.79,504.27c-30.18,4.21-37.61,29.19-37.61,29.19a49.94,49.94,0,0,0-12.16,9.64c4-3.51,12.35-9.35,25.77-10.88,0,0,20.54-31.17,48.49-35.63A28.19,28.19,0,0,0,1190.79,504.27Z"/><path class="cls-55" d="M1128.53,552.45a207.18,207.18,0,0,1,42.92-9.76s-22.92,4.86-38.88,13Z"/><path class="cls-54" d="M1189.31,519.86c-14.35,3-14.6,12.37-14.6,12.37,5.44-8.91,27-10.89,27-10.89,4.45-15.59,17.81-14.6,17.81-14.6,8.41-17.07,40.82-24.25,40.82-24.25-25.24,1.73-45,14.1-45,14.1C1196.24,501.8,1189.31,519.86,1189.31,519.86Z"/><path class="cls-56" d="M1030.27,609.95s15.78-11.59,34.52-9.62c0,0,9.86-14.55,27.86-10.6,0,0,31.31-28.85,62.13-27.61,0,0,18.49-23.42,48.82-24.16l-32.79,37.23-66.67,35Z"/><path class="cls-57" d="M1030.27,609.95s15.78-11.59,34.52-9.62c0,0,9.86-14.55,27.86-10.6,0,0,31.31-28.85,62.13-27.61,0,0,18.49-23.42,48.82-24.16l-32.79,37.23-66.67,35Z"/><path class="cls-58" d="M1092.65,589.73c-18-3.94-27.86,10.6-27.86,10.6-18.74-2-34.52,9.62-34.52,9.62l12.16,0c2.86-2.38,10.41-7.55,22.35-7.93,0,0,15-14.3,27.86-6.16,0,0,30.78-27.57,52-33.15C1117.45,566.9,1092.65,589.73,1092.65,589.73Z"/><path class="cls-58" d="M1154.79,562.11a52,52,0,0,0-8.32.36Z"/><path class="cls-59" d="M998.46,598.83l57.45-40.4a14.1,14.1,0,0,1,14.72-.92l5.26,2.8-6.08-1.4a13,13,0,0,0-11.14,2.64l-41.46,34.25,78-46.38s17.75-9.68,31.26,0,17.75,13.91,17.75,13.91l-3,.81-17.95-13.91s-8.27-8.27-27.83,4-84.09,56.47-84.09,56.47Z"/><path class="cls-60" d="M1059.86,609.95s15-14.3,33.53-12.33A265.3,265.3,0,0,0,1154,570.74s-19.23,20.46-43.64,25.4c0,0-6.9,1.23-11.1,6.41,0,0-14.3,1.73-18.74,7.64Z"/><path class="cls-61" d="M1154.79,562.11s-31.81,10.6-44.38,29.59c0,0,24.41-18.74,40.93-21,0,0,22.9-26.16,44.58-32.1C1170.18,542.62,1154.79,562.11,1154.79,562.11Z"/><polyline class="cls-62" points="1167.89 593.96 1303.89 496.46 1306.89 496.46 1325.14 500.71 1339.14 489.46 1435.89 476.71 1463.89 449.96 1590.39 424.46 1396.39 609.46 1153.39 609.96 1167.89 593.96"/><path class="cls-63" d="M1127.64,592.71c11.25-2.75,35.5-5,54.5-23.25s40.75-38,40.75-38,73.5-31.5,108.75-78.25a125,125,0,0,1,30.64,5.46c-3.77-1.45-7.66-2.79-11.64-4-21-6.17-27.9-4.51-34.46-1.24-6.21,6.6-52.43,55-91.29,75.49l62-60.25-5-1.25-39,40.25,37-41a15.82,15.82,0,0,0-6.2-1.56c-4.92,2.71-5.55,5.81-5.55,5.81s-50.75,51.75-70,73.25-34.25,33.5-44,37.5-22.58,5.42-35.08,13.25-16,16.33-16,16.33S1116.39,595.46,1127.64,592.71Z"/><path class="cls-64" d="M915.73,575.12s20.5,6.83,28.67,8.67l-46.67,26-18.67-1.33Z"/><path class="cls-65" d="M746.51,609.22,765,590.14l4.42,1.91s5.38,1.55,8.36,1.43l23.06,8.6s16.13,8.36,20.91,9.44L748,611.17Z"/><path class="cls-66" d="M765,590.14a5.28,5.28,0,0,0,.24,3.94l-16.37,14,1.79-.24s11.71-5.74,18.76-15.77a38.1,38.1,0,0,0,8.36,1.43A19.33,19.33,0,0,1,760.31,603l-9.56,6.21-4.24,0Z"/><path class="cls-34" d="M706.21,613.33s15.29.35,21.66-2.39c0,0,12.2-.18,20.68-8.22,0,0-1.33,8.49,15.2,8s18.83-2.47,18.83-2.47,27.31,4.24,42.25,3.27l-40.84.27-6.54,1.5s10.34,1.59,15.73,1.33c0,0-6.19,2.3-20.51-1.24Z"/><path class="cls-34" d="M863.43,623.22s36.16-1.1,50.19-7c0,0,26.52,7.67,47.77,1.53,0,0,26.74,3.94,35.06,4.82l-64.87.66s18,5.7,27.39,4.16c0,0-30,4.16-50.4-8.11C908.58,619.27,883.16,627.38,863.43,623.22Z"/><path class="cls-67" d="M896.39,604.79l31-20s.17-2.33,11.33-1.67,52.33,2.67,52.33,2.67l17.83,24.67-111.17-.67Z"/><path class="cls-12" d="M930.89,588.12s1.33-3.33,9.33-3.17c6.89.14,41.44.78,50.92,1l-.09-.12s-41.17-2-52.33-2.67-11.33,1.67-11.33,1.67l-31,20,1.33,5,7.75,0,3.08-.55Z"/><path class="cls-68" d="M949.56,621.12s15.5-10.33,20.17-13.33,15.33-9.67,30.5-4.33,27.83,6,33.5,6.83,37.5,3,43.83,5.17l-7.67,6.17Z"/><path class="cls-38" d="M1000.23,603.46c-15.17-5.33-25.83,1.33-30.5,4.33s-20.17,13.33-20.17,13.33l17.12.07c1.51-1.22,18.71-15,25.71-16.07,7.33-1.17,26.17,4.17,32.33,6,5.91,1.76,33.84,6.57,50.83,5.94l2-1.61c-6.33-2.17-38.17-4.33-43.83-5.17S1015.39,608.79,1000.23,603.46Z"/><path class="cls-69" d="M1010.39,627.29s34.83,0,47.67-4.33c0,0,11.83,6.33,30.67.33a43.29,43.29,0,0,0,17.1,2.27,29.55,29.55,0,0,0,5.9-1.1l-5.17-3,111.33.17s15-.5,11.17.83-1.17,2,5.83,2.17,61.17,1.17,72.67,1.5-5.83,2,1.5,2,52.5-.17,49,1.17-8.5,1.5,5.67,3.5-32.5,1-32.5,1-94-.83-112.5-1.5-32.33-4.83-49.17-5.33-62.5-.17-62.5-.17-4,1.5-13,2c0,0,5.17-.83,7.33-2.17l-46.17.33S1036.56,631.46,1010.39,627.29Z"/><path class="cls-12" d="M879.06,608.46s24.17-22.33,32.83-30.17,2,.5-3.17,5.83-21.67,24.5-21.67,24.5Z"/><path class="cls-34" d="M860.58,609.63l108.7.44-22.57-1.53c-6.57-.44-7.67-2-4.82-2.85,0,0-32,8.77-45.14-4.38C896.74,601.3,885.57,607.66,860.58,609.63Z"/><path class="cls-70" d="M1836.25,116.12s-13.74,16.78-41.93,13.72c0,0-37.23,16.29-77,3.45s-18.07-7.88-48.8-11.58-111-42.21-44.1-55.6,66.51-27.18,29.28-32-15.54-12.6,15.9-15.85,45.54-11.94,38.68-16.45-4-21.93,48.07-20.35,77,20,96.15,14.61-5.42-3.34-15.18-9.21,26-3.57,60.73,9,49.88,4,69,6,31.81,11.88,48.07,22.89,23.13,32,13,38.44.72,9.14,16.27,15,25.66,29.24-7.59,39-89.28,15.71-120.37-8.82S1854.32,99.53,1836.25,116.12Z"/><path class="cls-71" d="M1840.9,106.46s8.44,31.5,13.5,36,14.63,2.81,28.69-21.38,13.5-32.63,13.5-32.63l3.52,3.4-12.8,32.67s3.74,1.21,14.33-25l3.86,1.42-3,5.05,7.41-5.73,2.69,3.37-13.47,11.45-8.42,23.24s-54.9,12.46-52.21,124.28L1792,295.29l-1.68-6.74,31.32-112.16s17.85-11.11,21.89-25.26-10.44-51.53-10.44-51.53Z"/><path class="cls-72" d="M1826.68,205c19.2-28.63,19.2-37.39,19.2-37.39s-20.88,13.14-24.25,8.76L1790.3,288.56a96.39,96.39,0,0,0,15.16-25.26S1807.48,233.66,1826.68,205Z"/><path class="cls-73" d="M2036.86,117.18c33.25-9.73,23.13-33.08,7.59-39s-26.39-8.55-16.27-15,3.25-27.43-13-38.44S1986.26,3.82,1967.1,1.84s-34.34,6.59-69-6-70.48-14.87-60.73-9,34.34,3.81,15.18,9.21c-18.28,5.15-41.88-11.35-89.21-14.26-9.2.57-15.13,2.15-27.47,7.07C1710.38-1,1709.74,6,1742.27,21.32s26,21.91,12.29,32.32-14.46,21.05,8.68,25.18,21.69,21.39-2.17,23.87-71.57,7.46-47.71,17.71c10.82,4.65,30.85,11.23,49.52,17a119.59,119.59,0,0,0,31.45-7.62c28.19,3.06,41.93-13.72,41.93-13.72,18.07-16.59,49.16-32.29,80.24-7.75S2003.61,126.92,2036.86,117.18Z"/><path class="cls-74" d="M2044.45,78.21c-15.54-5.9-26.39-8.55-16.27-15s3.25-27.43-13-38.44S1986.26,3.82,1967.1,1.84s-34.34,6.59-69-6-70.48-14.87-60.73-9,34.34,3.81,15.18,9.21c-5.48,1.54-11.46,1.1-18.38-.3-9.62,0-48.3,1.08-31.14,16.11,19.52,17.1,67.23,24.2,53.5,36.62s-28.92,12.6,1.45,23.64c28.76,10.45,29,10.28,43.7,27.39a62.32,62.32,0,0,1,14.86,8.83c31.09,24.53,87.11,18.55,120.37,8.82S2060,84.11,2044.45,78.21Z"/><polygon class="cls-75" points="1167.89 593.96 1163.5 598.8 1195.18 596.58 1193.85 588.06 1225.51 558.53 1202.36 583.54 1208.48 581.68 1306.89 496.46 1303.89 496.46 1167.89 593.96"/><path class="cls-76" d="M1126.06,610.79s14.67-9,21.67-12,13.33-5.67,22.67-6,17.67-6,23-10,10.33-1,19-3.33,22.67-19,41.67-16.67l-46.33,47.67Z"/><path class="cls-77" d="M1217.39,580c3.33-1.53,15.91-11.15,26.67-16.73-14,2.89-24.6,14.32-31.67,16.23-8.67,2.33-13.67-.67-19,3.33s-13.67,9.67-23,10-15.67,3-22.67,6-21.67,12-21.67,12l14.58-.06c4.07-2.47,12-7.29,15.92-9.94,5.5-3.67,13-6.67,24.33-7.67s16.33-10.67,22.33-11.83S1213.39,581.79,1217.39,580Z"/><path class="cls-78" d="M1220.06,589.12c7.17-7.83,23.83-17.17,23.83-17.17s-13.67,5.67-22,12.67-15.67,8-22.5,10-11,7.17-20,10.33c-5.53,1.95-8.6,4.2-10.15,5.66l10,0c5.43-5.28,12.61-3.74,20-10.28C1206.89,593.46,1212.89,597,1220.06,589.12Z"/><path class="cls-79" d="M1219.46,598.39c-4.48,1-11.8,2.56-14.07,3.24-3.33,1-5,2.5-11,3.83-4.35,1-8.86,3.68-11,5.1l7.28,0c4.1-2.85,11-4,15.74-6.57a23,23,0,0,1,9.93-2.34Z"/><path class="cls-80" d="M1363.57,486.24l-5.25.69c-11.78,8.69-36.48,26.09-36.48,26.09,10.09-8.17,27.54-22.61,30.84-25.35l-13.54,1.78c-31.12,30.18-71.32,46.72-71.32,46.72C1311.07,526.56,1352.74,494.92,1363.57,486.24Z"/><path class="cls-81" d="M1207.73,610.46l56-57.69s13.22-14.72,36.65-16.22,55.28-15,68.49-30c0,0-18.32,23.13-54.07,29.44s-42.36,15-52.87,27.64-37.85,46.26-37.85,46.26Z"/><path class="cls-82" d="M1345.08,579.76s12,8.75,17.25,12.25l-17.5,17.75h-49l23.5-14,15.75-11Z"/><path class="cls-83" d="M1295.83,609.76s17-15.75,24.5-17.5,10.75-3.5,14.75-7.5,10-5,10-5-5,4-8.5,7.5-14,5.25-17.25,8.5-18,14-18,14Z"/><path class="cls-84" d="M1359.35,581.11s-14.16-16.43,5.66-23.22c0,0,1.13-21,23.22-23.22,0,0,13-17,36.25-9.06l23.22,4.53,16.43-11.9s2.83-16.43,13-18.69c0,0,4-11.33,21.52-9.63L1510,495l-49.28,47.58Z"/><path class="cls-85" d="M1356.52,590.73s-6.23-20.39,11.33-21.52c0,0,0-7.93,14.73-9.63,0,0,7.93,3.4,7.93-6.8,0,0-4-6.23-11.9-2.27,0,0,21.52-27.19,47-19.83,0,0,17-19.83,38.52-12.46,0,0-7.93,5.66-3.4,13,0,0,2.83-10.76,14.16-14.16,0,0,9.63-24.92,27.76-22.66,0,0,.57-12.46,15.29-7.36l-45.88,69.67-104.79,39.08Z"/><path class="cls-86" d="M1371.85,598l45.54-43.55,46-5L1710.89,279l116.35-16.19s20.65-10.31,57.15-52.81c0,0,23-27.5,36.5-35v431.5l-544.5,3Z"/><path class="cls-87" d="M1241.39,610.46s109.5-49,168-106c0,0-17.5,14-47,31.5,0,0,55.5-37.5,101.5-86l116-23.5-8,5-92,18.5S1372.89,559,1241.39,610.46Z"/><path class="cls-88" d="M1374.5,586.41S1403,557.88,1412,554.48s32.85-.57,44.75-5.66S1700.93,286,1700.93,286s2.27-7.93,21.52-10.2,104.79-13,104.79-13l-13.59,5.1-72.5,9.06s-56.08,91.76-122.92,134.81c0,0,46.45-34.55,81.57-99.13l-39.65,25.49L1533.83,476.31l4.53,4s-51.55,60.61-66.27,67.41-43,4-51.55,8.5-40.22,37.39-40.22,37.39Z"/><path class="cls-89" d="M1533.83,476.31s137.65-23.79,228.28-157.47c0,0-30.59,12.46-64.57,13.59l.53-2.31s41-2,93-37c0,0-4.67,6.67,22.33-3.67a311.57,311.57,0,0,0,45.67-21.67s-10,13-43,26.33c0,0-125.73,147-277.7,186.15Z"/><path class="cls-90" d="M1398.84,606.81l35.45-34.21s3.42-4.35,6.53-5.6,94.86-.31,94.86-.31l-10,3.42-69.66.62s-4.35-1.87-12.13,6.22S1433.05,605.88,1398.84,606.81Z"/><path class="cls-91" d="M1319.08,626.87l4.69-7.33s12.9-4.1,29.61-26.39c0,0,12.9-4.1,22.28-10.56l19.06,9.68s7,15,14.07,19.94,13.19,15,13.19,15Z"/><path class="cls-92" d="M1374.5,586.41l20.23,5.86-19.06-9.68c-9.38,6.45-22.28,10.56-22.28,10.56a117,117,0,0,1-13.5,15.27c1.88,0,8.22-.37,14.38-6.77,0,0-5.85,9.65-30.4,17.85l-.1,0S1351.92,619.54,1374.5,586.41Z"/><path class="cls-93" d="M1564,552.38s26.32-27.68,36.76-36.76,19.51-12.25,35.85-10.89c0,0-16.34-.45-24.5,8.62s-25.87,29.5-25.87,29.5Z"/><path class="cls-94" d="M1594.45,579.16l62.62-105.73s8.62-14.07,28.13-25.87,73.06-43.11,73.06-43.11l-2.72,5-70.34,46.29s-14.52,9.08-27.23,43.11c-10,26.68-33.13,76.24-33.13,76.24Z"/><path class="cls-95" d="M1460.2,600.74s2-8.33,19.1-9.79c0,0,8.33-11.26,26.44-10.28,0,0,2.59-9.81,29.94-14a133.19,133.19,0,0,1,35.68-21.3s35.26-32.81,62.68-32.81l-37.22,72L1542.47,610h-79.82Z"/><path class="cls-13" d="M1755.94,423.47s-10.74-7.81-5.86-18.54,16.1-13.18,16.1-13.18-11.22-19.52,12.69-28.31c0,0,0-29.77,31.23-26.84,0,0,9.27-18.54,32.21-12.69,0,0,5.37,4.39,21-1l-10.74,22Z"/><path class="cls-14" d="M1753.5,429.32s.49-24.4,22.94-27.33c0,0-5.86-29.28,28.31-28.31,0,0,7.32-1,6.83-8.78s-11.22-5.37-11.22-5.37,4.88-17.08,31.72-21c0,0,22-2.93,31.23-15.62s37.09-12.2,50.75-5.86l-21.33,32Z"/><path class="cls-24" d="M1571.36,545.4a133.19,133.19,0,0,0-35.68,21.3c-27.35,4.16-29.94,14-29.94,14-18.12-1-26.44,10.28-26.44,10.28-17.14,1.47-19.1,9.79-19.1,9.79l2.45,9.3h3.94a68.57,68.57,0,0,1,21-9.3c20.08-5.39,24-8.33,28.4-11.75s37.22-8.81,59.75-32.81c0,0-22.53,21.06-46.52,24,0,0-17.4,2.49-28.31,8.37,5.09-3.26,13.42-8.08,21.95-10.82,0,0,9.79-10.28,22-10.77,0,0,22-17.14,34.28-20.57,0,0,13.1-14.38,25.72-24.92C1586.64,531.18,1571.36,545.4,1571.36,545.4Z"/><polygon class="cls-96" points="1920.06 293.79 1905.39 325.79 1747.39 433.79 1672.73 547.79 1749.39 441.79 1892.73 349.13 1835.39 457.13 1841.39 455.79 1921.39 326.46 1920.06 293.79"/><path class="cls-95" d="M1557.65,595.35s10.77-14.2,25.47-12.24c0,0,22-21.06,47-21.55,0,0,15.66-16.77,42.6-13.77,0,0,16.66-18.55,48-23.94L1675.18,610l-123.9-.49Z"/><path class="cls-97" d="M1679.1,549.32s19.14-14.45,36-14.84l5.62-10.63c-31.34,5.39-48,23.94-48,23.94-26.94-3-42.6,13.77-42.6,13.77-25,.49-47,21.55-47,21.55-14.69-2-25.47,12.24-25.47,12.24l-1.15,2.56c7-2.68,24.12-7.8,37.39-.6,0,0,20.57-17.14,38.69-16.65,0,0,47.5-11.26,75.42-34.28,0,0-38.69,22.53-58.28,22.53,0,0-28.89,5.39-42.12,14.2,0,0,18.61-14.69,35.75-17.14C1643.35,566,1655.59,550.79,1679.1,549.32Z"/><path class="cls-91" d="M1436.41,610.62s-6.72,3.24,7.88,3.24,18.76-.46,18.76-.46,1.85,2.55,3-5.1,3.24-12.28-3.94-11.35S1436.41,610.62,1436.41,610.62Z"/><path class="cls-98" d="M1512.59,618.37S1540,587.52,1550.3,586s21.55,11.26,28.89,13.22c0,0,20.08,2,29.87,9.3s9.3,9.79,9.3,9.79Z"/><path class="cls-99" d="M1554.89,588c3.67,1,14.11,10.62,24.3,11.31-7.35-2-18.61-14.69-28.89-13.22s-37.71,32.32-37.71,32.32h2.81c12.58-3.09,40.38-10.61,47.15-18.12,0,0,4.85-5.29-5.49-7.12S1551.23,587,1554.89,588Z"/><path class="cls-99" d="M1458.42,605.75l-20.12,7.76s-6.33-.64-1.93-3.42,18.4-12,25.75-13.14c4.56-.72,4.4,3.47,0,5.1S1458.42,605.75,1458.42,605.75Z"/><path class="cls-100" d="M1169.6,688.25s7.79,10.54,17.46,8.54,19.79-11.32,26.56-14.66,71.44,1.32,71.44,1.32l34.67-2.33,30.22,31.57,24.45,15.43,15.33,24.33s-14,.67-41.33-3.67-65.33,4.67-120.33,5-145.26-3.19-145.26-3.19l44.93-26.48,29-13.67Z"/><path class="cls-101" d="M1392.15,641.53s12.26-8.17,16.62-10.38c2.32-1.17,5.41-3.41,10.38-.41,5.85,3.53,7.87,3.26,9.09,3.12s5.83-.14,5.83-.14l12.55,6.85Z"/><path class="cls-102" d="M1418.32,630.34v0c-4.5-2.31-7.39-.26-9.57.85-4.35,2.2-16.62,10.38-16.62,10.38l5.44-.09S1414.95,628.57,1418.32,630.34Z"/><path class="cls-103" d="M1244.33,930.53S1322,865,1350.12,858.44s85.2.94,103-2.81,119.84-136.69,119.84-136.69l15-.94,143.25-215.34s32.77-14,51.49-33.7l33.7-6.55,71.15-34.64,33.7,8.43v578.6l-265-.94s-4.68,1.87,3.74-10.3H1381s-25.28,8.43-.94-15l16.85-15s-53.37.94-72.09,1.87-37.45-.94-15-15.92h-33.7Z"/><path class="cls-104" d="M1782.67,469c-18.72,19.66-51.49,33.7-51.49,33.7L1587.93,718l-15,.94S1470.9,851.89,1453.11,855.63s-74.9-3.74-103,2.81c-24.33,5.68-85.86,55.58-101.91,68.85l4.18,8.66s50-39,65.5-46.5,18-1,18-1l-29.5,41a36.55,36.55,0,0,0,17-10s7.4-13.94,16.46-27.72a151.53,151.53,0,0,1,14.54-19.28c14-15,34.33-9.33,89.67-10.67s54-9.33,71.33-29.33c15-17.34,51.12-87.83,60.44-106.25a9.52,9.52,0,0,1,7.15-5.12l46.41-6.63-99,117.28a1,1,0,0,0,1.31,1.54l84.7-50.82,159-190L1683.1,720.79a1.47,1.47,0,0,0,2.26,1.87l199-210.2,3.13-84.69-71.15,34.64Z"/><path class="cls-105" d="M1782.67,469,1648,676.87l123.71-175.68L1692,626.36s86.38-54.9,93-63.68,31.44-100.26,31.44-100.26Z"/><polygon class="cls-72" points="1887.53 427.77 1884.39 512.46 1920.02 528.96 1920.02 436.2 1887.53 427.77"/><path class="cls-106" d="M1300.33,971.85s64.39-49.34,88.64-51.14l69.32-.63L1407.09,965s24.25,18,54.79-4.49S1595.7,856.31,1595.7,856.31s24.25-15.27,58.38.9,53.89,9.88,75.44-2.69,84.43-50.3,84.43-50.3l-46.7,132.93L1690,964.09l-15.27,20.66,21.66-19.29,116.5-30,73.5-130,34.5-4.5v-4.5l-42,7-92,133.5,98.5-247,35-24-.5-4-57,40.5-30.5,66.5s-74.5,50.5-117,73-68.74,11.38-115-8c-37-15.5-56.5,7.5-67,16.5s-70.53,63-70.53,63-59.81-1.58-75.62,1.27c-22.43,4-71.44,40.92-84.23,50.77a7,7,0,0,0-2.69,6.3Z"/><path class="cls-107" d="M1351.76,1063.33s4.13,9.13,65.13,6.13,114-.5,128.5,0,38,.5,50.5-19,42-69,42-69,5-13.5-10-14.5-141.5,21.5-141.5,21.5S1361.13,1040.71,1351.76,1063.33Z"/><path class="cls-108" d="M1351.76,1063.33s1.12-9.72,41.86-15.32,96.42-16.82,96.42-16.82,5.61-.37,15.7-9.34,9-12.33-9-6.35-69.88,21.67-69.88,21.67-12.71,2.62,2.24-7.1,26.16-8.22,43.72-16.44,56.06-22,63.53-25,12-1.87,28.78-2.24,31.39.75,31.39.75a28.28,28.28,0,0,0,22.42-9c9.72-10.46,14.57-11.21,5.23-12s-71.75-3.36-71.75-3.36a302.61,302.61,0,0,0-30.27,9.34c-17.56,6.35-37.74,12.71-70.26,14.2s-97.54,69.14-97.54,69.14S1352.13,1057.73,1351.76,1063.33Z"/><path class="cls-109" d="M1285.14,693.75l-15.69-11.29c-19.59-1.15-51.21-2.6-55.84-.32-6.77,3.34-16.89,12.66-26.56,14.66s-17.46-8.54-17.46-8.54l-12.88,22.21-29,13.67L1082.8,750.6s51.55,2,100.47,2.85l3-.69C1267.39,734.79,1285.14,693.75,1285.14,693.75Z"/><path class="cls-110" d="M1186.24,752.76s42.81-20.5,62.7-48.23c0,0-12.06-7.84-15.07-15.68C1233.87,688.85,1217.59,731.66,1186.24,752.76Z"/><path class="cls-111" d="M1082.8,750.6s12.23-12.84,38.51-24.45c0,0,23.23-7.95,36.68-31.18l11.62-6.72s20.17,21.4-33,36.07c0,0,54.41,0,83.75-39.12l13.52,3.66s-21.47,26.29-103.39,41.58C1130.48,730.43,1102.36,735.93,1082.8,750.6Z"/><path class="cls-111" d="M1213.62,682.13s10.23-3.61,41,3.67c30.2,7.15,30.57,7.95,30.57,7.95l-36.2,10.78s57-7.11,72.27-21.17l28.09,28.58s-20.48-22.39-27.41-32l-13-6s-9,8.93-43.25,5.75C1230.51,676.45,1213.6,681.56,1213.62,682.13Z"/><path class="cls-112" d="M819.44,889.73s-2.13,3.28,8,2.62,94-.66,94-.66,10.81-1.15,17.2-21.79.16-25.88,0-31.78,5.9-15.4,5.9-15.4l-3.44-2H913.3Z"/><path class="cls-113" d="M819.93,887.93s21.13-29.48,30.3-40.62,16.71-11,23.59-11.79,12.61-1.64,25.39-10.48,18.84-5.73,27-5.57,16.05-.33,17.85,2-2.78,1.31-5.9,1.31-16.38-1.47-23.75,1.15-25.72,17.69-25.72,17.69-12.61,7.37-12.94,12.45,9.5,5.24,13.6,6.06,3.11,2.78-2.29,5.41S844,884.15,827.47,889.41C816.65,892.85,819.93,887.93,819.93,887.93Z"/><path class="cls-114" d="M873.57,907.06s-7.47-21.65-5.36-34.78c0,0,6.61,21.42,8.59,23.26,0,0-.21-17.73,2.15-24.18,0,0,2.36,11.75,1.82,19.81,0,0,5.09-15.89,7.32-23,0,0,.93,9.67.36,12.9l3.51-10.59a185.73,185.73,0,0,1-2.19,24.87s6.34-13.59,8.44-21.42c0,0-1,18-9.93,30.63a13.27,13.27,0,0,1-6.06,1.61A65.54,65.54,0,0,0,873.57,907.06Z"/><path class="cls-17" d="M876.79,895.55c-2-1.84-8.59-23.26-8.59-23.26s3.9,21,7.68,28.82Z"/><path class="cls-17" d="M880.83,889.54A98.3,98.3,0,0,0,879,871.91l-.11-.55.25,25.61Z"/><path class="cls-17" d="M888.43,881c.57-3.22-.36-12.9-.36-12.9-1.72,13.24-5.14,31.74-5.14,31.74A162.68,162.68,0,0,0,888.43,881Z"/><path class="cls-17" d="M889.77,895.18c.84-5.2,1.35-10.24,1.67-14.4l.5-10.33s-2.76,24.69-4.77,30.35Z"/><path class="cls-115" d="M911.1,901s-6.62-17.73-4-28.48c0,0,5.77,17.54,7.67,19.05,0,0,.49-14.52,3.1-19.81,0,0,1.9,9.62,1,16.22,0,0,5.72-13,8.22-18.86,0,0,.55,7.92-.15,10.56l3.93-8.68a127.4,127.4,0,0,1-3.17,20.37s6.87-11.13,9.28-17.54c0,0-1.74,14.71-11.13,25.09a16,16,0,0,1-6.12,1.32A80.55,80.55,0,0,0,911.1,901Z"/><path class="cls-17" d="M914.78,891.58c-1.9-1.51-7.67-19.05-7.67-19.05s3.08,17.21,6.55,23.6Z"/><path class="cls-17" d="M919,886.66A65.56,65.56,0,0,0,918,872.22l-.08-.45-.76,21Z"/><path class="cls-17" d="M927,879.7c.69-2.64.15-10.56.15-10.56-2.24,10.85-6.38,26-6.38,26A120.57,120.57,0,0,0,927,879.7Z"/><path class="cls-17" d="M927.77,891.28c1-4.26,1.75-8.39,2.23-11.8l.91-8.46s-3.73,20.22-6,24.86Z"/><path class="cls-116" d="M924.28,908s-7.47-21.65-5.36-34.78c0,0,6.61,21.42,8.59,23.26,0,0-.21-17.73,2.15-24.18,0,0,2.36,11.75,1.82,19.81,0,0,5.09-15.89,7.32-23,0,0,.93,9.67.36,12.9l3.51-10.59a185.73,185.73,0,0,1-2.19,24.87s6.34-13.59,8.44-21.42c0,0-1,18-9.93,30.63a13.27,13.27,0,0,1-6.06,1.61A65.54,65.54,0,0,0,924.28,908Z"/><path class="cls-17" d="M927.5,896.49c-2-1.84-8.59-23.26-8.59-23.26s3.9,21,7.68,28.82Z"/><path class="cls-17" d="M931.54,890.48a98.3,98.3,0,0,0-1.78-17.63l-.11-.55.25,25.61Z"/><path class="cls-17" d="M939.14,882c.57-3.22-.36-12.9-.36-12.9-1.72,13.24-5.14,31.74-5.14,31.74A162.68,162.68,0,0,0,939.14,882Z"/><path class="cls-17" d="M940.48,896.12c.84-5.2,1.35-10.24,1.67-14.4l.5-10.33s-2.76,24.69-4.77,30.35Z"/><path class="cls-117" d="M984.21,866.58c-1.8,1.07-4.36,7.27,4.12,7.27s63.25,2.18,71.49-.48,10.66-17.93,10.66-17.93,4.85-6.3-.73-12.6-1.45-5.57,0-8.72,3.17-7.31-2.67-9.69C1056.42,820.05,1003.35,855.19,984.21,866.58Z"/><path class="cls-118" d="M988.57,871.18c8.24,0,38.53.48,38.53.48s5.82.48,15.27-8.72,14.3-13.09,14.3-13.09,4.6-3.15-5.33-2.42,2.67-5.09,5.33-8.48,10.18-9.94,10.18-9.94,2.26-2.85.69-4.4l-.45-.21c-10.66-4.36-63.73,30.78-82.87,42.16C984.21,866.58,980.33,871.18,988.57,871.18Z"/><path class="cls-119" d="M958.39,978.46s-7.5,2.5,6.5,2.5,137.5.5,137.5.5,95.5,3,107.5-2,18.5-13,49-12.5,45.5.5,36-9.5-83.5-71.5-83.5-71.5l-20.5-9-37,41.5-71.5,26.5Z"/><path class="cls-120" d="M958.39,978.46s55.5-35.5,78.5-36,56.5,0,78-9,42-41.5,53-50.5,24-14,43.5,3c0,0-21-17-25,5.5s7.5,45.5-15,47.5-73,0-84,4-25.5,22-40,29.5S958.39,978.46,958.39,978.46Z"/><path class="cls-121" d="M1013.89,1049.4a68.06,68.06,0,0,0,18.48,2.09c9.76-.35,96.24-.35,96.24-.35s9.78.25,12.55-8c3.79-11.3,12.2-31.38,12.2-31.38s3.84-3.84-3.14-6.63-8-3.84-5.23-12.2,10.11-22.67.7-21.62S1013.89,1049.4,1013.89,1049.4Z"/><path class="cls-120" d="M1016.33,1039.28s97.29-56.14,113.68-64.16,17.43-4.88,16,.35-18.13,18.48-20.57,20.92-12.9,5.93,1,12.9,1.39,10.11-8.72,13.95-76.37,22-91.71,25.11S1007.26,1047.65,1016.33,1039.28Z"/><path class="cls-122" d="M996.1,994.72s-25.19-67.53-26.85-73.07,19.65,24.36,31.55,62.55c0,0-18.54-65.6-33.49-96.32s13.29,20.2,19.65,30.45,21.59,65.87,21.59,65.87-7.2-41-15.78-66.15-2.77-21.87,4.71-2.77,19.1,61.17,19.1,61.17,1.11-15.78-6.09-46.22,1.38-10,4.43-3,10,53.69,10,53.69a202.77,202.77,0,0,0,2.77-37.64c-.55-19.65,1.66-22.7,4.15-3.32s1.66,56.19,1.66,56.19-4.15-4.71-10.52-.83-6.64,5.54-13.29,2.49S999.7,993.06,996.1,994.72Z"/><path class="cls-123" d="M969.59,922.68c2.69,8,17.63,48.18,23.82,64.82C988.54,959.07,974.76,932.09,969.59,922.68Z"/><path class="cls-123" d="M967.32,887.88c14.95,30.72,33.49,96.32,33.49,96.32C996,944.81,973.46,899,964.43,881.81,965.12,883.31,966.06,885.3,967.32,887.88Z"/><path class="cls-123" d="M1000.81,984.2c-1.55-5-3.27-9.83-5.07-14.47Z"/><path class="cls-123" d="M992.78,918.05c8.58,25.19,15.78,66.15,15.78,66.15C1006.4,953,995,915.72,990.09,900.72,987.67,898.15,987.66,903,992.78,918.05Z"/><path class="cls-123" d="M1010.5,930.23c7.2,30.45,6.09,46.22,6.09,46.22,3-21.33-3.75-48.92-7.1-60.81C1007.38,912.11,1006.48,913.23,1010.5,930.23Z"/><path class="cls-124" d="M360.92,930.74s-6.32-32-3.51-48.46,7,9.13,9,15.63S371.81,939,371.81,939Z"/><path class="cls-125" d="M371.81,939s5.27-20.37,3-42,1.58-23,6.14-10.36,5.44,40.2,5.44,40.2L381.11,955Z"/><path class="cls-126" d="M411.48,976.21s21.24-17.21,26.69-17.73,2.46,4.92.7,7.9-9.83,12.82-9,26.69l-4,7.72Z"/><path class="cls-127" d="M381.11,948.3s9.3-47.93,17-67.42,11.94-26.69,11.41-15.27-14.92,74.61-14.92,74.61l-3.69,15.63Z"/><path class="cls-126" d="M387.61,952.16s7.9-34.41,17.56-52.14,5.27,2.81,3.86,11.76-11.24,49.51-11.24,49.51Z"/><path class="cls-128" d="M438.17,958.48c-5.44.53-26.69,17.73-26.69,17.73l2.8,4.78c5.25-5.27,14.85-14.57,19.61-17a22.47,22.47,0,0,0,6.73-5A3.41,3.41,0,0,0,438.17,958.48Z"/><path class="cls-129" d="M427.46,999.91s4.39-21.95,22.47-47.75,19.66-17.91,14.75-9.13-10.88,19.84-10.88,19.84,19.49-27,28.09-30.55-4.21,13.87-4.21,13.87,4.39,5.79-2.81,15.63a213.54,213.54,0,0,0-13.52,21.59l21.24-12.46s3.69-1.58,2.28,1.4-9.83,12.46-21.95,18.79-33.71,19.14-33.71,19.14Z"/><path class="cls-130" d="M429.62,992.17l.3.89s8.62-27.3,30.47-49.43a78.3,78.3,0,0,0,6.69-7.47c0-3.59-4.59-1.92-17.14,16A153.7,153.7,0,0,0,429.62,992.17Z"/><path class="cls-128" d="M481.88,932.32c-5.45,2.23-15.27,13.9-21.74,22.15l-11.36,18s24.24-27.3,35.5-37.24C485.33,932.67,485.15,931,481.88,932.32Z"/><path class="cls-131" d="M477.66,948.77l1-.17a7.15,7.15,0,0,0-1-2.4s.66-.89,1.57-2.23c-2.5.81-6.18,4.19-11.57,13.17-13.44,22.4-28.33,32.92-28.33,32.92C458.5,982,477.66,948.77,477.66,948.77Z"/><path class="cls-131" d="M482.59,970.95l-21.24,12.46-3.11,3.67L485,971.92C485.88,969.54,482.59,970.95,482.59,970.95Z"/><path class="cls-132" d="M396.74,959s11.59-4.92,24.05-30,13-29.67,15.45-31.78,5.79-.7,3.69,11.41-19,55.13-35.29,68.12S396.74,959,396.74,959Z"/><path class="cls-133" d="M422.72,949.35s24.4-32.83,29.14-39.5,12.64-13.52,4.74,4.21-26.16,42.31-26.16,42.31l-17.56,9.13Z"/><path class="cls-129" d="M402.53,965.33a72.06,72.06,0,0,0,25.63-11.94c12.11-9.13,17-12.64,14.92-5.79s-14.57,24.05-30.37,30S402.53,965.33,402.53,965.33Z"/><path class="cls-128" d="M360.2,877.14c-1-.95-2,.23-2.79,5.15-2.81,16.5,3.51,48.46,3.51,48.46l3.55,2.69C363.53,929.36,357.1,900,360.2,877.14Z"/><path class="cls-134" d="M376.27,878.68c-2-.52-2.88,5.11-1.48,18.36,2.28,21.59-3,42-3,42l2,3.51c4-8,4.14-21.22,4.4-29.24C378.52,904.64,376.78,884.38,376.27,878.68Z"/><path class="cls-128" d="M394.51,896.83c6.11-19,11-30.79,14.59-36.34-1.3-2-5.13,5.67-11,20.39-7.72,19.49-17,67.42-17,67.42l2.24,1.72C384.27,943.09,388,917.21,394.51,896.83Z"/><path class="cls-130" d="M410.79,893.24c-.71-.83-2.37.78-5.63,6.78-9.66,17.73-17.56,52.14-17.56,52.14l1.7,1.52C395.52,925.86,407.15,900.73,410.79,893.24Z"/><path class="cls-130" d="M417.45,940.1c9.73-17.05,18.16-34,22.31-42.58-.88-1.54-2.31-1.36-3.52-.32-2.46,2.11-3,6.67-15.45,31.78s-24.05,30-24.05,30-.45,1.66-.95,4C397.7,962.92,405.51,961,417.45,940.1Z"/><path class="cls-135" d="M451.86,909.85c-4.74,6.67-29.14,39.5-29.14,39.5l-.92,1.5-1.26,4.21,39.41-50.87C460.14,900.34,455.21,905.13,451.86,909.85Z"/><path class="cls-136" d="M-.11,1023c159.85-37.44,215-122,215-122s37-13,60-51c13,8,42,15,42,15s22.29,51.62,74,87c19,13,77,102.72,95.12,128H.89Z"/><path class="cls-137" d="M316.89,865s-24,44-91,30c0,0,40-22,49-45C274.89,850,301.89,863,316.89,865Z"/><path class="cls-137" d="M129.39,976.46c71-27,126-72,126-72-43,3-40-3-40-3l-.2-.61-.3.11S160.21,984.77,2,1022.46l-1.58,1,.41,31.73c32.41-8.27,87.59-46.73,87.59-46.73C62.78,1037.87,6.54,1073.4.84,1077l.05,3H12.77l1.27-.05C66.7,1054.36,129.39,976.46,129.39,976.46Z"/><path class="cls-137" d="M330.89,889.46s-82.5,108-201.5,129c0,0-59,52-75.5,60h45l44.5-55,127-27s55,26,98,9-14-62-14-62l-83,22s53-38,70-61Z"/><path class="cls-72" d="M1842.43,251.91s28.64-5.69,46-18c0,0,19.62-28.62,30.85-41.3l.55-17.57s-15.56,10.07-36.79,35.69C1870,226.54,1855.78,241.89,1842.43,251.91Z"/></svg>