<svg xmlns="http://www.w3.org/2000/svg" xmlns:xlink="http://www.w3.org/1999/xlink" viewBox="0 0 1920 1080"><defs><style>.cls-1{fill:none;}.cls-2{isolation:isolate;}.cls-3{clip-path:url(#clip-path);}.cls-4{fill:url(#未命名的渐变_317);}.cls-5{fill:url(#未命名的渐变_758);}.cls-6{fill:url(#未命名的渐变_109);}.cls-58,.cls-7{fill:#fff;}.cls-12,.cls-13,.cls-7{opacity:0.8;}.cls-8{fill:url(#未命名的渐变_109-2);}.cls-18,.cls-20,.cls-43,.cls-51,.cls-54,.cls-9{mix-blend-mode:multiply;}.cls-9{fill:url(#未命名的渐变_109-3);}.cls-10{fill:url(#未命名的渐变_257);}.cls-11{fill:url(#未命名的渐变_305);}.cls-12,.cls-13{mix-blend-mode:overlay;}.cls-12{fill:url(#未命名的渐变_305-2);}.cls-13{fill:url(#未命名的渐变_305-3);}.cls-14{fill:url(#未命名的渐变_305-4);}.cls-15{fill:url(#未命名的渐变_257-2);}.cls-16{fill:url(#未命名的渐变_211);}.cls-17{fill:url(#未命名的渐变_211-2);}.cls-18{fill:url(#未命名的渐变_109-4);}.cls-19{fill:url(#未命名的渐变_109-5);}.cls-20{fill:url(#未命名的渐变_109-6);}.cls-21{fill:url(#未命名的渐变_92);}.cls-22{fill:url(#未命名的渐变_869);}.cls-23{fill:url(#未命名的渐变_876);}.cls-24{fill:url(#未命名的渐变_92-2);}.cls-25{fill:url(#未命名的渐变_102);}.cls-26{fill:url(#未命名的渐变_868);}.cls-27{fill:#0c080c;}.cls-28{fill:url(#未命名的渐变_816);}.cls-29{opacity:0.5;fill:url(#未命名的渐变_68);}.cls-30{fill:url(#未命名的渐变_456);}.cls-31{fill:url(#未命名的渐变_868-2);}.cls-32{fill:url(#未命名的渐变_257-3);}.cls-33{fill:url(#未命名的渐变_305-5);}.cls-34{fill:url(#未命名的渐变_257-4);}.cls-35{fill:url(#未命名的渐变_305-6);}.cls-36{fill:#c9adac;}.cls-37{fill:#564753;}.cls-38{fill:#4a3d47;}.cls-39{fill:url(#未命名的渐变_576);}.cls-40{fill:url(#未命名的渐变_912);}.cls-41{fill:url(#未命名的渐变_631);}.cls-42{fill:url(#未命名的渐变_68-2);}.cls-43,.cls-50{opacity:0.3;}.cls-43{fill:url(#未命名的渐变_18);}.cls-44{fill:url(#未命名的渐变_68-3);}.cls-45{fill:url(#未命名的渐变_5);}.cls-46{fill:url(#未命名的渐变_479);}.cls-47{fill:url(#未命名的渐变_21);}.cls-48{fill:url(#未命名的渐变_68-4);}.cls-49{fill:url(#未命名的渐变_793);}.cls-50{fill:url(#未命名的渐变_5-2);}.cls-51,.cls-54{opacity:0.2;}.cls-51{fill:url(#未命名的渐变_5-3);}.cls-52{fill:url(#未命名的渐变_888);}.cls-53{fill:url(#未命名的渐变_68-5);}.cls-54{fill:url(#未命名的渐变_5-4);}.cls-55{fill:url(#未命名的渐变_698);}.cls-56{fill:url(#未命名的渐变_576-2);}.cls-57{fill:url(#未命名的渐变_639);}.cls-59{fill:url(#未命名的渐变_842);}.cls-60{fill:url(#未命名的渐变_68-6);}.cls-61{fill:#ffbb83;}.cls-62{fill:url(#未命名的渐变_60);}.cls-63{fill:url(#未命名的渐变_926);}.cls-64{fill:url(#未命名的渐变_926-2);}.cls-65{fill:url(#未命名的渐变_926-3);}.cls-66{fill:url(#未命名的渐变_928);}.cls-67{fill:url(#未命名的渐变_928-2);}.cls-68{fill:url(#未命名的渐变_1072);}.cls-69{fill:url(#未命名的渐变_1072-2);}.cls-70{fill:url(#未命名的渐变_914);}.cls-71{fill:url(#未命名的渐变_914-2);}.cls-72{fill:url(#未命名的渐变_914-3);}.cls-73{fill:#0c151c;}.cls-74{fill:url(#未命名的渐变_926-4);}.cls-75{fill:url(#未命名的渐变_926-5);}.cls-76{fill:url(#未命名的渐变_926-6);}.cls-77{fill:url(#未命名的渐变_926-7);}</style><clipPath id="clip-path"><rect class="cls-1" width="1920" height="1080"/></clipPath><linearGradient id="未命名的渐变_317" x1="957.14" y1="594.66" x2="957.14" y2="-8.61" gradientUnits="userSpaceOnUse"><stop offset="0" stop-color="#97fadb"/><stop offset="1" stop-color="#3da1bb"/></linearGradient><linearGradient id="未命名的渐变_758" x1="961.29" y1="637.33" x2="961.29" y2="1108.48" gradientUnits="userSpaceOnUse"><stop offset="0" stop-color="#58c9b5"/><stop offset="0.67" stop-color="#1a8290"/><stop offset="1" stop-color="#026e85"/></linearGradient><linearGradient id="未命名的渐变_109" x1="2879.16" y1="611.54" x2="2879.16" y2="654.9" gradientTransform="matrix(-0.25, 0, 0, 1, 2494.02, 0)" gradientUnits="userSpaceOnUse"><stop offset="0" stop-color="#025771"/><stop offset="1" stop-color="#025771" stop-opacity="0"/></linearGradient><linearGradient id="未命名的渐变_109-2" x1="566.56" y1="587.73" x2="566.56" y2="753.86" gradientTransform="matrix(1, 0, 0, 1, 0, 0)" xlink:href="#未命名的渐变_109"/><linearGradient id="未命名的渐变_109-3" x1="564.19" y1="635.35" x2="564.19" y2="671.2" gradientTransform="matrix(1, 0, 0, 1, 0, 0)" xlink:href="#未命名的渐变_109"/><linearGradient id="未命名的渐变_257" x1="545.36" y1="381.8" x2="545.36" y2="675.12" gradientUnits="userSpaceOnUse"><stop offset="0.45" stop-color="#bbae9c"/><stop offset="1" stop-color="#026e85"/></linearGradient><linearGradient id="未命名的渐变_305" x1="285.42" y1="713.5" x2="542.74" y2="641.32" gradientUnits="userSpaceOnUse"><stop offset="0.28" stop-color="#024352"/><stop offset="1" stop-color="#026e85"/></linearGradient><linearGradient id="未命名的渐变_305-2" x1="774.73" y1="599.88" x2="776.48" y2="593.5" xlink:href="#未命名的渐变_305"/><linearGradient id="未命名的渐变_305-3" x1="629.48" y1="605.51" x2="638.9" y2="592.76" xlink:href="#未命名的渐变_305"/><linearGradient id="未命名的渐变_305-4" x1="204.68" y1="727.44" x2="268.13" y2="619.3" xlink:href="#未命名的渐变_305"/><linearGradient id="未命名的渐变_257-2" x1="1165.04" y1="560.53" x2="748.12" y2="636.22" xlink:href="#未命名的渐变_257"/><linearGradient id="未命名的渐变_211" x1="1474.21" y1="1174.1" x2="1185.56" y2="812.79" gradientUnits="userSpaceOnUse"><stop offset="0" stop-color="#025771"/><stop offset="0.48" stop-color="#025771" stop-opacity="0.52"/><stop offset="1" stop-color="#025771" stop-opacity="0"/></linearGradient><linearGradient id="未命名的渐变_211-2" x1="-291.02" y1="858.36" x2="722.98" y2="858.36" xlink:href="#未命名的渐变_211"/><linearGradient id="未命名的渐变_109-4" x1="2873.46" y1="624.3" x2="2873.46" y2="636.46" xlink:href="#未命名的渐变_109"/><linearGradient id="未命名的渐变_109-5" x1="3630.57" y1="585.56" x2="3630.57" y2="633.24" xlink:href="#未命名的渐变_109"/><linearGradient id="未命名的渐变_109-6" x1="3627.37" y1="596.29" x2="3627.37" y2="610.8" xlink:href="#未命名的渐变_109"/><linearGradient id="未命名的渐变_92" x1="1469.54" y1="768.51" x2="1469.54" y2="808.92" gradientUnits="userSpaceOnUse"><stop offset="0" stop-color="#132838"/><stop offset="1" stop-color="#22424c" stop-opacity="0"/></linearGradient><linearGradient id="未命名的渐变_869" x1="1626.94" y1="727.11" x2="1634.19" y2="584.26" gradientUnits="userSpaceOnUse"><stop offset="0" stop-color="#4a3d47"/><stop offset="1" stop-color="#c3a2a0"/></linearGradient><linearGradient id="未命名的渐变_876" x1="1702.6" y1="770.38" x2="1720.93" y2="682.11" gradientUnits="userSpaceOnUse"><stop offset="0" stop-color="#382c32"/><stop offset="1" stop-color="#4a3d47"/></linearGradient><linearGradient id="未命名的渐变_92-2" x1="1529.13" y1="886.14" x2="1529.13" y2="995.03" xlink:href="#未命名的渐变_92"/><linearGradient id="未命名的渐变_102" x1="1756.24" y1="939.34" x2="1756.24" y2="1077.86" gradientUnits="userSpaceOnUse"><stop offset="0" stop-color="#132838"/><stop offset="0.33" stop-color="#172f3d" stop-opacity="0.73"/><stop offset="0.97" stop-color="#21414b" stop-opacity="0.04"/><stop offset="1" stop-color="#22424c" stop-opacity="0"/></linearGradient><linearGradient id="未命名的渐变_868" x1="1623.34" y1="657.06" x2="1617.13" y2="743.92" gradientUnits="userSpaceOnUse"><stop offset="0" stop-color="#cdbdbf"/><stop offset="1" stop-color="#c3a2a0"/></linearGradient><linearGradient id="未命名的渐变_816" x1="1624.74" y1="927.7" x2="1512.11" y2="779.34" gradientUnits="userSpaceOnUse"><stop offset="0" stop-color="#110b0b"/><stop offset="0.28" stop-color="#301a14"/><stop offset="0.76" stop-color="#603021"/><stop offset="1" stop-color="#723926"/></linearGradient><linearGradient id="未命名的渐变_68" x1="1645.07" y1="831.24" x2="1512.43" y2="698.68" gradientUnits="userSpaceOnUse"><stop offset="0" stop-color="#110b0b"/><stop offset="1" stop-color="#723926"/></linearGradient><linearGradient id="未命名的渐变_456" x1="1422.66" y1="849.55" x2="1516.43" y2="891.4" gradientUnits="userSpaceOnUse"><stop offset="0" stop-color="#110b0b"/><stop offset="0.23" stop-color="#2f1913"/><stop offset="0.56" stop-color="#532a1d"/><stop offset="0.83" stop-color="#6a3524"/><stop offset="1" stop-color="#723926"/></linearGradient><linearGradient id="未命名的渐变_868-2" x1="1497.01" y1="745.13" x2="1427.02" y2="772.82" xlink:href="#未命名的渐变_868"/><linearGradient id="未命名的渐变_257-3" x1="1566.75" y1="513" x2="1590.81" y2="599.2" xlink:href="#未命名的渐变_257"/><linearGradient id="未命名的渐变_305-5" x1="1671.03" y1="613.76" x2="1662.41" y2="573.58" xlink:href="#未命名的渐变_305"/><linearGradient id="未命名的渐变_257-4" x1="1766.78" y1="445.77" x2="1766.78" y2="610.22" xlink:href="#未命名的渐变_257"/><linearGradient id="未命名的渐变_305-6" x1="1652.73" y1="598.19" x2="1920.31" y2="598.19" xlink:href="#未命名的渐变_305"/><linearGradient id="未命名的渐变_576" x1="351.56" y1="751.84" x2="323.07" y2="1012" gradientUnits="userSpaceOnUse"><stop offset="0" stop-color="#8a9e1a"/><stop offset="1" stop-color="#416201"/></linearGradient><linearGradient id="未命名的渐变_912" x1="515.47" y1="1041.12" x2="686.92" y2="849.81" gradientUnits="userSpaceOnUse"><stop offset="0" stop-color="#f7b85b"/><stop offset="1" stop-color="#ffd187"/></linearGradient><linearGradient id="未命名的渐变_631" x1="524.7" y1="830.77" x2="328.21" y2="1180.25" gradientUnits="userSpaceOnUse"><stop offset="0" stop-color="#416201" stop-opacity="0"/><stop offset="1" stop-color="#1b3701"/></linearGradient><linearGradient id="未命名的渐变_68-2" x1="1668.05" y1="790.49" x2="1651.93" y2="727.27" xlink:href="#未命名的渐变_68"/><linearGradient id="未命名的渐变_18" x1="138.41" y1="699.95" x2="-103.87" y2="522" gradientUnits="userSpaceOnUse"><stop offset="0" stop-color="#f7b85b"/><stop offset="1" stop-color="#eac180"/></linearGradient><linearGradient id="未命名的渐变_68-3" x1="1756.43" y1="758.49" x2="1756.43" y2="1132.6" xlink:href="#未命名的渐变_68"/><linearGradient id="未命名的渐变_5" x1="1936.82" y1="619.28" x2="1629.66" y2="925.17" gradientUnits="userSpaceOnUse"><stop offset="0" stop-color="#cca392"/><stop offset="1" stop-color="#fe9f67"/></linearGradient><linearGradient id="未命名的渐变_479" x1="1791.35" y1="843.89" x2="1968.05" y2="981.93" gradientUnits="userSpaceOnUse"><stop offset="0" stop-color="#110b0b"/><stop offset="0.2" stop-color="#1e110f"/><stop offset="0.56" stop-color="#402118"/><stop offset="1" stop-color="#723926"/></linearGradient><linearGradient id="未命名的渐变_21" x1="1743.57" y1="859.16" x2="1576.9" y2="859.16" gradientUnits="userSpaceOnUse"><stop offset="0" stop-color="#110b0b"/><stop offset="1" stop-color="#744926"/></linearGradient><linearGradient id="未命名的渐变_68-4" x1="378.26" y1="986.59" x2="732.98" y2="986.59" gradientTransform="matrix(0.89, 0.07, 0, 1, 47.41, -16.92)" xlink:href="#未命名的渐变_68"/><linearGradient id="未命名的渐变_793" x1="465.26" y1="1011.57" x2="626.4" y2="947.87" gradientUnits="userSpaceOnUse"><stop offset="0" stop-color="#976d56"/><stop offset="1" stop-color="#faad67"/></linearGradient><linearGradient id="未命名的渐变_5-2" x1="596.48" y1="1049.38" x2="634.24" y2="1049.38" xlink:href="#未命名的渐变_5"/><linearGradient id="未命名的渐变_5-3" x1="1699.73" y1="642.27" x2="1411.14" y2="778.02" gradientTransform="matrix(1, -0.06, 0.06, 1, -36.95, 100.31)" xlink:href="#未命名的渐变_5"/><linearGradient id="未命名的渐变_888" x1="1618.58" y1="827.7" x2="1468.19" y2="841.92" gradientUnits="userSpaceOnUse"><stop offset="0.15" stop-color="#110b0b"/><stop offset="0.45" stop-color="#381e16"/><stop offset="0.81" stop-color="#623122"/><stop offset="1" stop-color="#723926"/></linearGradient><linearGradient id="未命名的渐变_68-5" x1="1830.97" y1="901.71" x2="1421.97" y2="920.71" xlink:href="#未命名的渐变_68"/><linearGradient id="未命名的渐变_5-4" x1="1838.52" y1="691.74" x2="1885.87" y2="691.74" gradientTransform="matrix(0.39, -0.1, -0.24, 1.06, 1309.62, 138.12)" xlink:href="#未命名的渐变_5"/><linearGradient id="未命名的渐变_698" x1="1702.22" y1="705.44" x2="1699.05" y2="708.79" gradientUnits="userSpaceOnUse"><stop offset="0" stop-color="#4a3d47"/><stop offset="1" stop-color="#322932"/></linearGradient><linearGradient id="未命名的渐变_576-2" x1="540.99" y1="918.17" x2="-154.34" y2="918.17" xlink:href="#未命名的渐变_576"/><linearGradient id="未命名的渐变_639" x1="196.82" y1="815.54" x2="166.83" y2="959.48" gradientUnits="userSpaceOnUse"><stop offset="0" stop-color="#416201"/><stop offset="1" stop-color="#0e2d01"/></linearGradient><linearGradient id="未命名的渐变_842" x1="567.59" y1="1125.29" x2="565.22" y2="1089.67" gradientTransform="matrix(0.87, 0.06, 0, -0.57, 54.86, 1563.34)" gradientUnits="userSpaceOnUse"><stop offset="0" stop-color="#110b0b"/><stop offset="0.89" stop-color="#653322" stop-opacity="0.14"/><stop offset="1" stop-color="#723926" stop-opacity="0"/></linearGradient><linearGradient id="未命名的渐变_68-6" x1="568.3" y1="979.32" x2="565.57" y2="938.31" gradientTransform="matrix(0.89, -0.05, 0, 1, 48.04, 27.96)" xlink:href="#未命名的渐变_68"/><linearGradient id="未命名的渐变_60" x1="1636.82" y1="675.02" x2="1403.25" y2="913.9" gradientUnits="userSpaceOnUse"><stop offset="0" stop-color="#ddb29a"/><stop offset="1" stop-color="#fea274"/></linearGradient><linearGradient id="未命名的渐变_926" x1="-33.86" y1="854.42" x2="10.65" y2="1007.89" gradientUnits="userSpaceOnUse"><stop offset="0" stop-color="#2d5a39"/><stop offset="1" stop-color="#0c151c"/></linearGradient><linearGradient id="未命名的渐变_926-2" x1="124.31" y1="941.84" x2="92.42" y2="996.98" xlink:href="#未命名的渐变_926"/><linearGradient id="未命名的渐变_926-3" x1="70.68" y1="852.55" x2="44.77" y2="1009.34" xlink:href="#未命名的渐变_926"/><linearGradient id="未命名的渐变_928" x1="200.45" y1="816.19" x2="187" y2="849.21" gradientUnits="userSpaceOnUse"><stop offset="0" stop-color="#d5171a"/><stop offset="1" stop-color="#4e0302"/></linearGradient><linearGradient id="未命名的渐变_928-2" x1="238.76" y1="826.7" x2="221.14" y2="889.13" xlink:href="#未命名的渐变_928"/><linearGradient id="未命名的渐变_1072" x1="211.32" y1="886.86" x2="222.67" y2="907.87" gradientUnits="userSpaceOnUse"><stop offset="0.18" stop-color="#fc8112"/><stop offset="0.73" stop-color="#9a4511"/></linearGradient><linearGradient id="未命名的渐变_1072-2" x1="211.82" y1="886.07" x2="241.99" y2="941.92" xlink:href="#未命名的渐变_1072"/><linearGradient id="未命名的渐变_914" x1="290.34" y1="898.11" x2="182.95" y2="925.13" gradientUnits="userSpaceOnUse"><stop offset="0" stop-color="#d5171a"/><stop offset="1" stop-color="#630302"/></linearGradient><linearGradient id="未命名的渐变_914-2" x1="144.65" y1="843.97" x2="171.49" y2="895.86" xlink:href="#未命名的渐变_914"/><linearGradient id="未命名的渐变_914-3" x1="192.9" y1="838.31" x2="185.97" y2="925.6" xlink:href="#未命名的渐变_914"/><linearGradient id="未命名的渐变_926-4" x1="390.43" y1="1050.97" x2="344.93" y2="1024.56" xlink:href="#未命名的渐变_926"/><linearGradient id="未命名的渐变_926-5" x1="224.22" y1="974.55" x2="204.38" y2="965.88" xlink:href="#未命名的渐变_926"/><linearGradient id="未命名的渐变_926-6" x1="180.07" y1="959.53" x2="138.21" y2="1027.96" xlink:href="#未命名的渐变_926"/><linearGradient id="未命名的渐变_926-7" x1="248.09" y1="965.61" x2="248.09" y2="1082.81" xlink:href="#未命名的渐变_926"/></defs><title>背景图</title><g class="cls-2"><g id="图层_1" data-name="图层 1"><g class="cls-3"><rect class="cls-4" x="-5.49" y="-4.41" width="1925.26" height="615.42"/><polygon class="cls-5" points="1926.62 601.62 -5.11 601.62 -5.11 1091.25 1927.69 1080.31 1926.62 601.62"/><path class="cls-6" d="M1930,628.41l-312.92-2.57s-7.16.91-6.3,2.54c2.56,4.83,16.24,4.54,19.09,4.69,4.64.25,45.06,5.52,53.56,6.52,11.67,1.38,43.84,2.71,52.31,3.26,17.44,1.13,33.91,7.67,41.77,7.69,43.21.07,91.35-5.85,114.85-5,7.42.28,25.79.9,42.44,3Z"/><path class="cls-7" d="M1077.6,617.68s-33.37-1.65-46.49-6.41c0,0-23.7,7.44-45.34.83,0,0-23,3.93-32.68,4.34,0,0,23,0,35.67,5,0,0,36.59-.21,46.49-7C1035.26,614.37,1059.19,620.78,1077.6,617.68Z"/><path class="cls-8" d="M59.93,649.73s31,89.84,61.77,87.41c128-10.11-51.67-17.69,52.25-30.82,46.19-5.83,97.19-7.56,117.76-8.36,65.2-2.53,198.76,14.11,318.66,13.9,21.82,0,171.88-27.65,220.86-27.8,23.53-.07,93.72,11,118.17,3.79,23.17-6.79,53-12.5,64.79-14,7.85-1,51.67-10.62,58.78-24.17,2.4-4.57-17.48-7.12-17.48-7.12Z"/><path class="cls-9" d="M60.48,648.9s113.61,18.74,228.11,18.71c64.79,0,199.69-4.07,318.84-4.12,21.68,0,170.79-6.49,219.46-6.53,23.38,0,94.55,3.45,117.43.89,21.37-2.4,54.89-4,64.38-3.3,7.51.55,51.94-3.36,59-6.54,2.38-1.07-18-.81-18-.81Z"/><path class="cls-10" d="M1066.6,647.92s-2-8.2-9.36-11.9-35-12.73-59-15.8-37.13-5-42.24-9c-11-8.57-16.38-7.55-20.07-6-11.77,5-20.79,5.74-44.18,10.05s-50.39-5.74-55.32-10.05-25.85-20.31-37.55-20.31-16.21,10.57-27.29,10-10.34-5.44-21.42-5.44-65.61-1.55-87.41,0c-5,.36-8.62,1.23-19.08,6.77s-33.86-.62-42.47-4.31S513.1,549,506.28,545.29c-5.41-2.93-10.46-2.46-22.16.62s-28.18,9.68-57.72,18.3-89.87,27.7-110.19,33.24-56,8.62-102.19,1.85-57.86-11.08-78.79-11.7-3.34,3.69-34.12,1.85-75.73,16-75.73,16l-1.26,51.36Z"/><path class="cls-11" d="M373.41,635.49h0A533.49,533.49,0,0,1,514.89,632l181,19.71H411.4Z"/><path class="cls-12" d="M781.21,600.74c12.56,4.75,4-6.66-1.35-7.4l-.3,0a14.65,14.65,0,0,1-7.65,1.59,26.25,26.25,0,0,1-8.06-1.58l-.57,0S773.65,597.88,781.21,600.74Z"/><path class="cls-13" d="M601,591.87s56.2,24.75,58.28,25.27-16.19-17.43-10.24-23.45C647.9,594.1,637.12,605.54,601,591.87Z"/><path class="cls-14" d="M132.82,655.88l326-2.78.68,0-78.88-30.35L226.44,601.09l-.23-.21q-6-.68-12.19-1.59c-46.17-6.77-57.86-11.08-78.79-11.7s-3.34,3.69-34.12,1.85c-8.65-.52-18.42.52-28,2.28Z"/><path class="cls-15" d="M932,607a1.36,1.36,0,0,0,.3-.29c-10.17,3.72-19.17,4.8-40.23,7.76-22.47,3.16-47.17-3.65-54.35-8.3,0,0,25,19,57.59,16.42C928.26,619.91,925.32,611.74,932,607Z"/><path class="cls-16" d="M949,974.37C864,993.26,989.83,996,1034.89,994c110.75-4.87,257.25,13.25,168.82,16.12-6.19.2-102.25,9.88-7.46,19.72,103.74,10.77,194.73-1.43,246.89-11.57,53.42-10.39,98.69-1.28,88.65.54-52.72,9.51-36,29.74-2.31,28.77,169.61-4.89,98.9-82.62-143.37-93.94-51.09-2.39-93.4-19.7-56.11-21.79,11.94-.67,69.52,2.35,92.46.33,46.34-4.07,114.58-45.41-25-46.41-31.82-.23-175.87-6.76-192.9-9.43-73-11.43-19.19-17.31,17.12-18.13,65.54-1.49,152.69-.74,206.24-4.29,52.79-3.5,49.79-34.53,20.8-36.92-21.85-1.81-42.28-4.23-25-9,26.63-7.35,29.46-20.58,2.18-24.23-2-.27,6.39-5.59,4-6.07-73-14.85-224.55-19.6,78.79-26.7,135.63-3.17,414.76,41.82,414.76,41.82s1.65,157.4-.35,288.4c-146.13,13.22-1234.79.62-1234.79.62s-65.8-.94-69-45.61C613.91,960.6,1040.5,954,949,974.37Z"/><path class="cls-17" d="M20.52,823c17.94,1.19,694.38-25.18,689,26.94C706.32,880.75,445,922.49,21.87,883.59Z"/><path class="cls-18" d="M1930,629l-312.92-.72s-4.27-.13-3.4.32c2.56,1.35,13.34,1.66,16.19,1.7,4.64.07,45.06,1.54,53.56,1.83,11.67.39,43.84.76,52.31.91,17.44.32,33.91,2.15,41.77,2.15,43.21,0,91.35-1.64,114.85-1.39,7.42.08,25.79.25,42.44.83Z"/><path class="cls-19" d="M1741.75,602.51s-320.18-2.25-319.31-.63c2.56,4.83,16.34,5.14,19.18,5.29,4.64.25,45.06,5.52,53.56,6.52,11.67,1.38,43.84,2.71,52.31,3.26,17.44,1.13,34.07,6.13,41.77,7.69,55.11,11.17,91.35-5.85,114.85-5,7.42.28,25.79.9,42.44,3Z"/><path class="cls-20" d="M1741.75,603.14l-308.56-2.07s-10,.44-9.1.9c2.56,1.35,17.52,3.06,20.35,3.39,9.33,1.08,42.23.64,50.73.92,11.67.39,43.84.76,52.31.91,17.44.32,33.91,2.15,41.77,2.15,43.21,0,91.35-1.64,114.85-1.39,7.42.08,25.79.25,42.44.83Z"/><polygon class="cls-21" points="1426.35 782.11 1432.56 803.85 1460.22 812.03 1512.72 776.47 1489.01 772.51 1426.35 782.11"/><path class="cls-22" d="M1805,708l-63.5-50.78-35.78-7.18-22-6.38s-42,38.78-56.26,47.81-59.55,22.83-67.82,33.36-15.61,18.32-20.88,19.82-34.35,1.06-34.35,1.06L1445,765l-22.87,3.9,4.51,14.29h400.12Z"/><polygon class="cls-23" points="1644.09 730.57 1740.19 674.5 1770.31 765.87 1663.61 786.54 1644.09 730.57"/><path class="cls-24" d="M1667,1001.45s-14.91,10.59-47.08,25.11c-5.65,2.55-51.37.95-76.89-14.12-23.5-13.88-52.35.8-67.08-11-5.88-4.71-13.34-45.51-22-50.21-19.62-10.7-60.81-18.44-60.81-18.44s-.39-17.79-1.14-25-.82-15.79-.82-15.79,151.25-1.2,183.59-2.75S1667,906.12,1667,906.12Z"/><polygon class="cls-25" points="1588.92 904.31 1650.11 963.99 1744.13 1005.55 1760.09 1080.69 1922.41 1080.4 1923.57 910.49 1588.92 904.31"/><path class="cls-26" d="M1667.44,735.35l47.86-40.1,24.81-20.79,1.38-17.08-2.6-6.34-56.65-13.82-18.47,7.44s-92.1,74.22-102.05,81.82c-10.64,8.13-27.5,14.65-32.77,16.15s-29.94.94-29.94.94,25.42,6.35,40,7S1667.44,735.35,1667.44,735.35Z"/><polygon class="cls-27" points="1667.99 734.9 1676.85 778 1648.92 737.39 1667.99 734.9"/><path class="cls-28" d="M1712.45,769.7l-51.14-21.81-15.79-29.33s-17.14-3.14-34.44-6.9-27.76,27.08-27.76,27.08,1.15-8.21-23.67,8.33-75.8,28.3-88.62,45.95c-5.34,7.35,0,12-19.55,27.83s-64.68,44.37-64.68,44.37l-.52,11.81,5.07,16.77s52.61-1.5,64.64-1.5,35.35,4.51,60.92.75,27.08,3,59.42,5.26S1691.39,869,1691.39,869Z"/><polygon class="cls-29" points="1670.98 788.4 1657.65 768.06 1661.31 747.89 1650.99 728 1648.84 723.86 1648.63 727.65 1631.53 737.17 1620.55 749.13 1602.73 756.88 1576.34 765.59 1578.69 799.93 1603.7 835.48 1600.99 898.34 1682.31 841.06 1670.98 788.4"/><path class="cls-30" d="M1469.19,893.13c-.3-2-1.08-12.75,1.57-19.31,9.83-24.33,10.58-28.2,10.58-28.2l-16,19.84-17,9a82,82,0,0,0,2.69,17.86c2,0,3.72,0,5,0C1459.5,892.29,1464,892.68,1469.19,893.13Z"/><path class="cls-31" d="M1442.14,769.39c12.44-1.31,52.2-16.09,66.73-23.65-1.47-.22-10.11-2.12-10.11-2.12l-72.24,23.2-4.39,2.13S1425.43,771.15,1442.14,769.39Z"/><path class="cls-32" d="M1424,601.93s19.29-5.8,34.84-10.39,23.69.35,43.49-4.95,31.47-7.42,54.8-13.79,15.56-9.55,37.83-11.67,29.35-2.47,29.35-2.47,2.12-5.66,6-5.3,72.18,9.2,81.32,10.61c12,1.85,17.32,15.2,17.32,15.2s10.65,6.18,29.58,20.92c.27.21-88.62,5.24-127.87,4.18s-128.64-2.53-175.14-.14C1447.69,604.54,1424,601.93,1424,601.93Z"/><path class="cls-33" d="M1760.93,602.17a9.6,9.6,0,0,0-1.51-1.43l-.83-.65c-18.93-14.74-29.58-20.92-29.58-20.92a32,32,0,0,0-3.55-5.38l-3.44-1.08-66,4.77L1578,599l-1.69,4.12c18.95.47,38.69.76,54.37,1.19C1663.88,605.16,1760.93,602.17,1760.93,602.17Z"/><path class="cls-34" d="M1613.47,628.61,1625.3,620l60-7.38,53-12.73,34-23.38s47.47-19.92,59.32-24.36c2.09-.78,40.58-8.38,43-7.62,12.15,3.84,29.74,11.19,29.74,11.19s7.35,5.76,15.66,17.64V619s-100.76,9.55-144.25,9.9S1672.57,627.78,1613.47,628.61Z"/><path class="cls-35" d="M1764.51,616.69l-64.39-3.34-39.21,10.11-8.18,5c12-.52,267.37,1.59,267.37,1.59l.21-56.83a89.09,89.09,0,0,1-8-6.37l-4.42-.47-48,8Z"/><path class="cls-36" d="M94.34,579.3c38.59,15.38,123.6,46,137.81,57.28,49.56,39.2-38.83,24.49-38.83,24.49S35.3,562.57,94.34,579.3Z"/><path class="cls-37" d="M338.79,761.39a71.54,71.54,0,0,0-22.09-47.7c-22.2-21.13-57.65-54.48-81.46-74.92-4.34-3.73-74.79-25.89-102.78-34.6A58.57,58.57,0,0,1,112,593L-.07,480.87-3.69,590.73,153.65,814.06l190,31.87Z"/><path class="cls-38" d="M-1.48,539.63S233.39,731.15,277,763.9c8.32,6.25,45.71,47.87,74.25,74.2,25.86,23.86,55.92,37.1,55.92,37.1l-269.4-52.43L-2.38,632.34Z"/><path class="cls-39" d="M220,751.27s20.34,26.84,91.46,60.75,125.19,50,156.44,79.1c-13.49-27.11-42.07-56.41-76.45-75.75-58.42-32.86-60.62-13.47-88.81-37.21S220,751.27,220,751.27Z"/><path class="cls-40" d="M-1.54,575.07s31.23,27.39,99,79.49C142.52,689.15,223,745,293.92,800.72c9.63,7.57,269,72.23,323.26,88,31.8,9.22,191.31,102.94,226,108.53,187.28,30.15,476.29,48.34,541.77,56.8,9.68,1.25,30.87,25.38,30.87,25.38L-5,1081.4Z"/><path class="cls-41" d="M-1.18,705.5c54.14,42.3,124.45,40,176.85,72.88C241.2,819.48,243.23,884.59,313,911.12,474.8,972.61,543,899.4,657,985.4c106.74,80.52,322,98,322,98l-313.1,1.25L-3,1083.2Z"/><polygon class="cls-42" points="1647.42 717.47 1661.31 747.89 1647.44 725.8 1647.42 717.47"/><path class="cls-43" d="M-12.62,595.23c25.93,21,117.29,85.21,117.29,85.21S18.85,610.18-4.9,587.79Z"/><path class="cls-44" d="M1921.2,615.52s-5.49,21.61-43.09,42.67S1848,678.31,1826.9,708.4s-38.07,16.93-38.07,16.93l-77.65,40.46s-38.93,31.74-61.49,68.6-59.6,69.68-59.6,69.68l4.87,3.23,10.28,11.95s52.15,1.07,80.66,3.92c2.5.25,15.36,4.75,17.24,5.29,8.68,2.48,48.05,9.87,48.05,9.87l95.55,3.62,76,1.47Z"/><path class="cls-45" d="M1921.2,615.66v-.15s-4.51-.75-42.12,20.31-39.11,15.79-60.17,45.88-30.08,43.62-30.08,43.62l-78.1,39.77-61,69.28-47.38,53.4-13.14,16.78,16,14.7,44.14-23.62S1733.17,804,1774.3,780l-26.93,37.7s-5.39,8.32,16.16-2.45S1862,773.18,1862,773.18Z"/><path class="cls-46" d="M1861.86,844.14l1.51-40-23,13.13-19,80.16L1794,919.15,1791.46,940c30.28,1.37,30.45,1.14,55.75,1.88l19.68-83.27Z"/><path class="cls-47" d="M1746.4,818.9l.6-.42a4.8,4.8,0,0,1,.37-.74L1774.3,780C1741,799.46,1649.08,895,1649.08,895l-44.21,24.4s129.71,17.75,146.32,18.92Z"/><path class="cls-48" d="M383.56,964.51l51.59-2,44.17-11.85s24.18-7.55,47.34-6.06,159.1,38.85,159.1,38.85l10.8,16.06,1.08,79.2-313.34-55.17C384.29,996.73,381.87,1000.15,383.56,964.51Z"/><path class="cls-49" d="M599.79,944.33l-86.93-3.42s-67.94,17.58-91.3,20.18c-17.41,1.94-29.18,2.85-38,3.21,62,25.88,63.6,17.72,108.55,33.31,57.82,20.06,65.1,20,98.42,26,20.45,3.71,45-4.11,45-4.11s15.47-6.44,32.2-13c11.51-4.52,17.41-6.86,29-6.92l-9.53-35.41Z"/><path class="cls-50" d="M591.4,1023.75c0,5.8.61,53.78.61,53.78l46.4,1.66-2.72-59.63S611.31,1027.36,591.4,1023.75Z"/><polygon class="cls-51" points="1622.53 687 1667.52 650.27 1675.81 650.51 1687.01 646.17 1622.53 687"/><path class="cls-52" d="M1535,778.71l-5.47,19.14,22.63,46.94,11.59,52.52-20-3.76-19.68-100.79s3.56-11.75,5.32-13c3.84-2.78,16-9.55,16-9.55Z"/><polygon class="cls-38" points="1738.88 651.03 1773.36 682.77 1741.48 657.37 1738.88 651.03"/><polygon class="cls-53" points="1647.19 894.93 1647.18 925.57 1603.32 919.23 1647.19 894.93"/><path class="cls-54" d="M1892.13,651.78s-7.18,18.45-8.34,21.41,3.44,4.45,2.7,6.64-18.76,36.68-18.76,36.68l9.53-27.69s3.06-13.41-4.87-1.43l-7.93,12Z"/><polygon class="cls-55" points="1703.84 704.84 1692.81 700.19 1693.89 713.18 1706.48 716.13 1703.84 704.84"/><path class="cls-56" d="M-2.52,753.48C134.16,809.73,152,840.95,278.05,926.07c47.81,32.29,86,29.67,117,42.08,39.47,15.78,70.9,65.85,140.19,75.3,135.7,18.5,181,39.41,181,39.41l-87.65-.76-630.17-.84Z"/><path class="cls-57" d="M-.94,910.65s37.66,20.52,84.42,76.59c14.71,17.64,47.58,63.08,168.63,64.16,36.88.33,67.21,30.29,67.21,30.29l-318.67.5Z"/><path class="cls-7" d="M1301,601.62s22.41-4.71,35.81-10.65c0,0,8.44,6.46,27.55,7.25s25-4.64,32.94-6.3c-2.62,4.64,5.59,7.73,22.12,9.7Z"/><path class="cls-58" d="M1498.26,635.49s48.28-2.66,67.26-10.32c0,0,34.3,12,65.6,1.33,0,0,33.3,6.33,47.28,7l-88.24,1.66s23.64,7,36.63,6.33c0,0-52.94-.33-67.26-11.32C1559.52,630.16,1524.89,640.48,1498.26,635.49Z"/><path class="cls-59" d="M492.48,960.55l19.76-2.33,122.12,9.12-6.12,5.39a4.57,4.57,0,0,1-3.1,1.14c-7.21-.12-34.18-.56-36.85-.47-1.05,0-5.12,2-5.69,2-29.66-.05-66.74-.53-66.74-.53l-7.47-2.77L466.5,959.39Z"/><path class="cls-60" d="M491,960.68l20.84-2.32H512l121.49,9.45a1.13,1.13,0,0,0,1-1.77l-3.3-4.66a1.11,1.11,0,0,0-.68-.45c-4.29-.92-40-8.53-42.9-9.12-1.07-.21-5.19-4.31-5.76-4.39-24.27-3.29-55.91-6.36-67.19-7.42a17.46,17.46,0,0,0-8.13,1.18L466.3,957.3a1.13,1.13,0,0,0-.28.16h0a1.13,1.13,0,0,0,.64,2l24.16,1.22Z"/><path class="cls-61" d="M587.66,951.81C590.78,952.44,631,961,631,961S587.68,945,584.61,944.79s-4-2.77-20.67-4-49.26-.83-49.26-.83,37.17,3.35,67.22,7.42C582.47,947.5,586.6,951.6,587.66,951.81Z"/><path class="cls-62" d="M1546,769.8c.81-.36-11.88,9.19-11,8.91,26.69-8.58,67.86-21.73,67.86-21.73l14.1-2.71a19.45,19.45,0,0,0,8.86-4.22c3.78-3.18,9-7.79,9.94-9.64,1.47-2.94-.91-3,8.39-7.89,2.73-1.44,4.3-4.91,5.32-6.54l-2.09-8.51-68.48-17s-101,83.86-114.18,94.6c-1.76,1.44,4.78,9.71-14.77,25.5s-63.19,44.64-63.19,44.64l-1.25,12.18c6-.94,24.79-4.87,24.79-4.87l89.57-54.46s21.66-26.38,29.19-38.13C1530.67,778.77,1544.75,770.37,1546,769.8Z"/><path class="cls-63" d="M-3.64,846.07s43,88.61,40.72,235.85l-40.72.45Z"/><path class="cls-64" d="M65.28,1015.23S88.1,971.38,94.81,958s24.17-50.57,26.4-71.16c0,0,2.24,124.86-43,194.67C2.26,1090.88,65.28,1015.23,65.28,1015.23Z"/><path class="cls-65" d="M57.69,1082.2s13.67-59.89,22.91-164S69.75,769.5,69.75,769.5s11.66,88-22.51,150.72S11.87,1079,11.87,1079Z"/><path class="cls-66" d="M173.41,846.82s14.51-13.56,30-22.71l-10.09,45.42-22.71,1.89Z"/><path class="cls-67" d="M206.53,883.4s34.69-30.91,41-37.53c0,0-10.72,51.73-18.61,69.39S201.48,914,201.48,914Z"/><path class="cls-68" d="M207.42,877.41s16.22-7.68,22.78,3.82C239.68,897.8,205,915.69,205,915.69Z"/><path class="cls-69" d="M193.85,891.41c-.67-5,29.79-21.68,36.36-10.19a13.08,13.08,0,0,1,1.64,7.61C231,900.94,194.75,898.09,193.85,891.41Z"/><path class="cls-70" d="M197.06,921.57s47.31-39.74,79.17-51.73c0,0-24.6,83.58-111.65,89.57Z"/><path class="cls-71" d="M149.88,953.1s-5.69-101,25.43-148.88c0,0,11,43.83,3,96.35S149.88,953.1,149.88,953.1Z"/><path class="cls-72" d="M152.28,955.32s11-87.05,71-142.88c0,0,12,105.66-55.83,146.66l-12,1.89Z"/><path class="cls-73" d="M146.77,936.54a20,20,0,0,1,7.54,13.71s.34-3.77,5.14-7.54c0,0,7.89,3.09,2.74,16.11,0,0,7.89-4.46,14.06,4.46,0,0-12,0-17.49,3.77,0,0-4.11,3.43-8.23,15.09S121.4,1062,92.6,1080.19H68.95s38.4-21.26,65.48-82.28c0,0,14.06-30.86,15.43-40.46S146.77,936.54,146.77,936.54Z"/><path class="cls-74" d="M315.89,995.1s35.35,10.74,48.78,37.14c0,0-43.41-22.82-82.79-29.09Z"/><path class="cls-75" d="M209.38,959.29s9-2.69,12.53,10.74c0,0-8.06-1.79-12.08,1.79s-16.11,0-16.11,0Z"/><path class="cls-76" d="M79.6,1076.1s47-55.49,63.55-73.84,50.57-38,66.23-43c0,0-5.82,4.92-11.64,16.56s-69.37,95.32-69.37,95.32Z"/><path class="cls-77" d="M91.68,1080.57S187.9,1001.36,230.41,983s75.18-10.29,103.38-13.87,61.76-8.5,70.71,8.5c0,0-5.37-6.27-21-2.69s-85.93,32.22-113.22,42.52-95.32,65.34-95.32,65.34Z"/></g></g></g></svg>